<svg xmlns="http://www.w3.org/2000/svg" width="1920" height="1000" viewBox="0 0 1920 1000">
  <defs>
    <linearGradient id="bg" x1="0" y1="0" x2="1" y2="1">
      <stop offset="0%" stop-color="#060610"/>
      <stop offset="50%" stop-color="#0a0a1a"/>
      <stop offset="100%" stop-color="#060610"/>
    </linearGradient>
    <radialGradient id="g1" cx="25%" cy="35%">
      <stop offset="0%" stop-color="rgba(255,159,65,0.05)"/>
      <stop offset="60%" stop-color="transparent"/>
    </radialGradient>
    <radialGradient id="g2" cx="75%" cy="65%">
      <stop offset="0%" stop-color="rgba(100,140,255,0.04)"/>
      <stop offset="55%" stop-color="transparent"/>
    </radialGradient>
    <radialGradient id="g3" cx="50%" cy="20%">
      <stop offset="0%" stop-color="rgba(255,119,51,0.03)"/>
      <stop offset="50%" stop-color="transparent"/>
    </radialGradient>
  </defs>
  <rect width="1920" height="1000" fill="url(#bg)"/>
  <rect width="1920" height="1000" fill="url(#g1)"/>
  <rect width="1920" height="1000" fill="url(#g2)"/>
  <rect width="1920" height="1000" fill="url(#g3)"/>
  <g opacity="0.018">
    <line x1="384" y1="0" x2="384" y2="1000" stroke="white" stroke-width="0.5"/>
    <line x1="768" y1="0" x2="768" y2="1000" stroke="white" stroke-width="0.5"/>
    <line x1="1152" y1="0" x2="1152" y2="1000" stroke="white" stroke-width="0.5"/>
    <line x1="1536" y1="0" x2="1536" y2="1000" stroke="white" stroke-width="0.5"/>
    <line x1="0" y1="250" x2="1920" y2="250" stroke="white" stroke-width="0.5"/>
    <line x1="0" y1="500" x2="1920" y2="500" stroke="white" stroke-width="0.5"/>
    <line x1="0" y1="750" x2="1920" y2="750" stroke="white" stroke-width="0.5"/>
  </g>
  <circle cx="280" cy="180" r="2" fill="rgba(255,159,65,0.09)"/>
  <circle cx="620" cy="400" r="1.5" fill="rgba(100,140,255,0.06)"/>
  <circle cx="980" cy="150" r="2.5" fill="rgba(255,170,51,0.05)"/>
  <circle cx="1320" cy="480" r="2" fill="rgba(100,140,255,0.07)"/>
  <circle cx="1660" cy="250" r="1.5" fill="rgba(255,159,65,0.05)"/>
  <circle cx="420" cy="700" r="2" fill="rgba(100,140,255,0.05)"/>
  <circle cx="850" cy="820" r="1.5" fill="rgba(255,159,65,0.04)"/>
  <circle cx="1200" cy="680" r="2" fill="rgba(255,170,51,0.06)"/>
  <circle cx="1550" cy="780" r="2" fill="rgba(100,140,255,0.05)"/>
  <circle cx="160" cy="550" r="1.5" fill="rgba(255,159,65,0.06)"/>
  <line x1="150" y1="200" x2="550" y2="1000" stroke="rgba(255,159,65,0.01)" stroke-width="1"/>
  <line x1="1450" y1="0" x2="1920" y2="750" stroke="rgba(100,140,255,0.008)" stroke-width="1"/>
</svg>
