<svg xmlns="http://www.w3.org/2000/svg" width="1920" height="1400" viewBox="0 0 1920 1400">
  <defs>
    <linearGradient id="bg" x1="0" y1="0" x2="1" y2="1">
      <stop offset="0%" stop-color="#060610"/>
      <stop offset="50%" stop-color="#0a0a1a"/>
      <stop offset="100%" stop-color="#060610"/>
    </linearGradient>
    <radialGradient id="g1" cx="20%" cy="30%">
      <stop offset="0%" stop-color="rgba(255,159,65,0.045)"/>
      <stop offset="60%" stop-color="transparent"/>
    </radialGradient>
    <radialGradient id="g2" cx="80%" cy="70%">
      <stop offset="0%" stop-color="rgba(100,140,255,0.035)"/>
      <stop offset="55%" stop-color="transparent"/>
    </radialGradient>
    <radialGradient id="g3" cx="50%" cy="50%">
      <stop offset="0%" stop-color="rgba(255,119,51,0.025)"/>
      <stop offset="50%" stop-color="transparent"/>
    </radialGradient>
  </defs>
  <rect width="1920" height="1400" fill="url(#bg)"/>
  <rect width="1920" height="1400" fill="url(#g1)"/>
  <rect width="1920" height="1400" fill="url(#g2)"/>
  <rect width="1920" height="1400" fill="url(#g3)"/>
  <g opacity="0.015">
    <line x1="384" y1="0" x2="384" y2="1400" stroke="white" stroke-width="0.5"/>
    <line x1="768" y1="0" x2="768" y2="1400" stroke="white" stroke-width="0.5"/>
    <line x1="1152" y1="0" x2="1152" y2="1400" stroke="white" stroke-width="0.5"/>
    <line x1="1536" y1="0" x2="1536" y2="1400" stroke="white" stroke-width="0.5"/>
    <line x1="0" y1="350" x2="1920" y2="350" stroke="white" stroke-width="0.5"/>
    <line x1="0" y1="700" x2="1920" y2="700" stroke="white" stroke-width="0.5"/>
    <line x1="0" y1="1050" x2="1920" y2="1050" stroke="white" stroke-width="0.5"/>
  </g>
  <circle cx="250" cy="200" r="2" fill="rgba(255,159,65,0.08)"/>
  <circle cx="700" cy="450" r="1.5" fill="rgba(100,140,255,0.06)"/>
  <circle cx="1100" cy="200" r="2.5" fill="rgba(255,170,51,0.05)"/>
  <circle cx="1500" cy="500" r="2" fill="rgba(100,140,255,0.06)"/>
  <circle cx="400" cy="800" r="2" fill="rgba(255,159,65,0.05)"/>
  <circle cx="960" cy="950" r="1.5" fill="rgba(100,140,255,0.04)"/>
  <circle cx="1300" cy="1100" r="2" fill="rgba(255,159,65,0.06)"/>
  <circle cx="600" cy="1200" r="1.5" fill="rgba(100,140,255,0.05)"/>
  <circle cx="1700" cy="300" r="2" fill="rgba(255,170,51,0.05)"/>
  <circle cx="300" cy="1100" r="2" fill="rgba(255,159,65,0.04)"/>
  <line x1="100" y1="300" x2="600" y2="1400" stroke="rgba(255,159,65,0.008)" stroke-width="1"/>
  <line x1="1400" y1="0" x2="1920" y2="900" stroke="rgba(100,140,255,0.006)" stroke-width="1"/>
</svg>
