<svg xmlns="http://www.w3.org/2000/svg" width="1920" height="1200" viewBox="0 0 1920 1200">
  <defs>
    <linearGradient id="bg" x1="0" y1="0" x2="1" y2="1">
      <stop offset="0%" stop-color="#06060f"/>
      <stop offset="50%" stop-color="#0b0b1c"/>
      <stop offset="100%" stop-color="#06060f"/>
    </linearGradient>
    <radialGradient id="g1" cx="20%" cy="30%">
      <stop offset="0%" stop-color="rgba(255,159,65,0.06)"/>
      <stop offset="60%" stop-color="transparent"/>
    </radialGradient>
    <radialGradient id="g2" cx="75%" cy="65%">
      <stop offset="0%" stop-color="rgba(255,170,51,0.05)"/>
      <stop offset="55%" stop-color="transparent"/>
    </radialGradient>
    <radialGradient id="g3" cx="55%" cy="15%">
      <stop offset="0%" stop-color="rgba(255,119,51,0.035)"/>
      <stop offset="50%" stop-color="transparent"/>
    </radialGradient>
    <radialGradient id="g4" cx="40%" cy="85%">
      <stop offset="0%" stop-color="rgba(255,159,65,0.04)"/>
      <stop offset="50%" stop-color="transparent"/>
    </radialGradient>
  </defs>
  <rect width="1920" height="1200" fill="url(#bg)"/>
  <rect width="1920" height="1200" fill="url(#g1)"/>
  <rect width="1920" height="1200" fill="url(#g2)"/>
  <rect width="1920" height="1200" fill="url(#g3)"/>
  <rect width="1920" height="1200" fill="url(#g4)"/>
  <!-- Grid -->
  <g opacity="0.02">
    <line x1="320" y1="0" x2="320" y2="1200" stroke="white" stroke-width="0.5"/>
    <line x1="640" y1="0" x2="640" y2="1200" stroke="white" stroke-width="0.5"/>
    <line x1="960" y1="0" x2="960" y2="1200" stroke="white" stroke-width="0.5"/>
    <line x1="1280" y1="0" x2="1280" y2="1200" stroke="white" stroke-width="0.5"/>
    <line x1="1600" y1="0" x2="1600" y2="1200" stroke="white" stroke-width="0.5"/>
    <line x1="0" y1="240" x2="1920" y2="240" stroke="white" stroke-width="0.5"/>
    <line x1="0" y1="480" x2="1920" y2="480" stroke="white" stroke-width="0.5"/>
    <line x1="0" y1="720" x2="1920" y2="720" stroke="white" stroke-width="0.5"/>
    <line x1="0" y1="960" x2="1920" y2="960" stroke="white" stroke-width="0.5"/>
  </g>
  <!-- Accent particles -->
  <circle cx="180" cy="200" r="2.5" fill="rgba(255,159,65,0.1)"/>
  <circle cx="520" cy="380" r="1.5" fill="rgba(255,159,65,0.07)"/>
  <circle cx="800" cy="120" r="2" fill="rgba(255,170,51,0.06)"/>
  <circle cx="1150" cy="300" r="2.5" fill="rgba(255,159,65,0.08)"/>
  <circle cx="1450" cy="500" r="1.5" fill="rgba(255,119,51,0.07)"/>
  <circle cx="1700" cy="180" r="2" fill="rgba(255,159,65,0.06)"/>
  <circle cx="300" cy="750" r="2" fill="rgba(255,170,51,0.08)"/>
  <circle cx="650" cy="900" r="1.5" fill="rgba(255,159,65,0.05)"/>
  <circle cx="1000" cy="850" r="2.5" fill="rgba(255,119,51,0.06)"/>
  <circle cx="1350" cy="700" r="2" fill="rgba(255,159,65,0.07)"/>
  <circle cx="1650" cy="950" r="1.5" fill="rgba(255,170,51,0.06)"/>
  <circle cx="450" cy="1050" r="2" fill="rgba(255,159,65,0.05)"/>
  <circle cx="1100" cy="1100" r="2" fill="rgba(255,119,51,0.07)"/>
  <!-- Diagonal accent lines -->
  <line x1="0" y1="300" x2="600" y2="1200" stroke="rgba(255,159,65,0.012)" stroke-width="1"/>
  <line x1="700" y1="0" x2="1300" y2="1200" stroke="rgba(255,170,51,0.01)" stroke-width="1"/>
  <line x1="1400" y1="0" x2="1920" y2="900" stroke="rgba(255,119,51,0.012)" stroke-width="1"/>
</svg>
