<svg xmlns="http://www.w3.org/2000/svg" width="600" height="340" viewBox="0 0 600 340">
  <defs><linearGradient id="bg6" x1="0" y1="0" x2="1" y2="1"><stop offset="0%" stop-color="#0c0c18"/><stop offset="100%" stop-color="#14142a"/></linearGradient></defs>
  <rect width="600" height="340" fill="url(#bg6)"/>
  <!-- Node: CRM -->
  <rect x="60" y="80" width="110" height="50" rx="10" fill="rgba(255,255,255,0.03)" stroke="rgba(255,255,255,0.1)" stroke-width="1"/>
  <rect x="78" y="96" width="40" height="5" rx="2.5" fill="rgba(255,255,255,0.08)"/>
  <rect x="78" y="108" width="74" height="3" rx="1.5" fill="rgba(255,255,255,0.04)"/>
  <!-- Arrow 1 -->
  <line x1="170" y1="105" x2="220" y2="105" stroke="rgba(255,159,65,0.2)" stroke-width="1.5"/>
  <polygon points="220,100 232,105 220,110" fill="rgba(255,159,65,0.2)"/>
  <!-- Node: AI (center, larger) -->
  <rect x="232" y="60" width="136" height="90" rx="14" fill="rgba(255,159,65,0.04)" stroke="rgba(255,159,65,0.18)" stroke-width="1.5"/>
  <rect x="260" y="82" width="80" height="6" rx="3" fill="rgba(255,159,65,0.2)"/>
  <rect x="260" y="96" width="50" height="4" rx="2" fill="rgba(255,159,65,0.1)"/>
  <rect x="260" y="108" width="80" height="4" rx="2" fill="rgba(255,159,65,0.08)"/>
  <rect x="260" y="118" width="65" height="4" rx="2" fill="rgba(255,159,65,0.08)"/>
  <circle cx="352" cy="78" r="8" fill="rgba(255,159,65,0.1)" stroke="rgba(255,159,65,0.2)" stroke-width="0.5"/>
  <text x="352" y="82" text-anchor="middle" fill="rgba(255,159,65,0.4)" font-size="9">✦</text>
  <!-- Arrow 2 -->
  <line x1="368" y1="105" x2="418" y2="105" stroke="rgba(255,159,65,0.2)" stroke-width="1.5"/>
  <polygon points="418,100 430,105 418,110" fill="rgba(255,159,65,0.2)"/>
  <!-- Node: Email -->
  <rect x="430" y="80" width="110" height="50" rx="10" fill="rgba(255,255,255,0.03)" stroke="rgba(255,255,255,0.1)" stroke-width="1"/>
  <rect x="448" y="96" width="40" height="5" rx="2.5" fill="rgba(255,255,255,0.08)"/>
  <rect x="448" y="108" width="74" height="3" rx="1.5" fill="rgba(255,255,255,0.04)"/>
  <!-- Arrow down from AI -->
  <line x1="300" y1="150" x2="300" y2="190" stroke="rgba(255,159,65,0.2)" stroke-width="1.5"/>
  <polygon points="295,190 300,202 305,190" fill="rgba(255,159,65,0.2)"/>
  <!-- Node: Calendar -->
  <rect x="232" y="202" width="136" height="50" rx="10" fill="rgba(255,255,255,0.03)" stroke="rgba(255,255,255,0.1)" stroke-width="1"/>
  <rect x="250" y="218" width="50" height="5" rx="2.5" fill="rgba(255,255,255,0.08)"/>
  <rect x="250" y="230" width="100" height="3" rx="1.5" fill="rgba(255,255,255,0.04)"/>
  <!-- Side nodes -->
  <rect x="80" y="202" width="110" height="50" rx="10" fill="rgba(255,255,255,0.03)" stroke="rgba(255,255,255,0.1)" stroke-width="1"/>
  <rect x="98" y="218" width="50" height="5" rx="2.5" fill="rgba(255,255,255,0.08)"/>
  <rect x="98" y="230" width="74" height="3" rx="1.5" fill="rgba(255,255,255,0.04)"/>
  <line x1="190" y1="227" x2="232" y2="227" stroke="rgba(255,255,255,0.06)" stroke-width="1" stroke-dasharray="4,2"/>
  <rect x="410" y="202" width="110" height="50" rx="10" fill="rgba(255,255,255,0.03)" stroke="rgba(255,255,255,0.1)" stroke-width="1"/>
  <rect x="428" y="218" width="55" height="5" rx="2.5" fill="rgba(255,255,255,0.08)"/>
  <rect x="428" y="230" width="74" height="3" rx="1.5" fill="rgba(255,255,255,0.04)"/>
  <line x1="368" y1="227" x2="410" y2="227" stroke="rgba(255,255,255,0.06)" stroke-width="1" stroke-dasharray="4,2"/>
</svg>
