<svg xmlns="http://www.w3.org/2000/svg" width="600" height="340" viewBox="0 0 600 340">
  <defs><linearGradient id="bg2" x1="0" y1="0" x2="1" y2="1"><stop offset="0%" stop-color="#0c0c18"/><stop offset="100%" stop-color="#14142a"/></linearGradient></defs>
  <rect width="600" height="340" fill="url(#bg2)"/>
  <!-- App frame -->
  <rect x="100" y="30" width="400" height="280" rx="12" fill="rgba(255,255,255,0.02)" stroke="rgba(255,255,255,0.1)" stroke-width="1.5"/>
  <!-- Sidebar -->
  <rect x="100" y="30" width="90" height="280" rx="12" fill="rgba(255,255,255,0.015)"/>
  <rect x="112" y="50" width="50" height="5" rx="2.5" fill="rgba(255,159,65,0.2)"/>
  <rect x="112" y="66" width="66" height="4" rx="2" fill="rgba(255,255,255,0.06)"/>
  <rect x="112" y="78" width="66" height="4" rx="2" fill="rgba(255,255,255,0.04)"/>
  <rect x="112" y="90" width="66" height="4" rx="2" fill="rgba(255,255,255,0.04)"/>
  <rect x="112" y="102" width="66" height="4" rx="2" fill="rgba(255,255,255,0.04)"/>
  <!-- Search bar -->
  <rect x="210" y="46" width="270" height="28" rx="14" fill="rgba(255,255,255,0.03)" stroke="rgba(255,255,255,0.08)" stroke-width="1"/>
  <text x="230" y="64" fill="rgba(255,255,255,0.12)" font-size="10" font-family="Inter,sans-serif">Ask a question about your company...</text>
  <!-- AI Response area -->
  <rect x="210" y="88" width="270" height="100" rx="8" fill="rgba(255,159,65,0.03)" stroke="rgba(255,159,65,0.1)" stroke-width="0.5"/>
  <rect x="224" y="100" width="200" height="4" rx="2" fill="rgba(255,159,65,0.15)"/>
  <rect x="224" y="110" width="240" height="4" rx="2" fill="rgba(255,159,65,0.1)"/>
  <rect x="224" y="120" width="180" height="4" rx="2" fill="rgba(255,159,65,0.1)"/>
  <rect x="224" y="136" width="60" height="4" rx="2" fill="rgba(255,159,65,0.08)"/>
  <rect x="224" y="148" width="220" height="4" rx="2" fill="rgba(255,159,65,0.1)"/>
  <rect x="224" y="158" width="190" height="4" rx="2" fill="rgba(255,159,65,0.08)"/>
  <rect x="224" y="172" width="40" height="10" rx="5" fill="rgba(255,159,65,0.08)" stroke="rgba(255,159,65,0.15)" stroke-width="0.5"/>
  <text x="244" y="180" text-anchor="middle" fill="rgba(255,159,65,0.3)" font-size="6" font-family="Inter,sans-serif" font-weight="600">Source</text>
  <!-- Document cards below -->
  <rect x="210" y="200" width="130" height="50" rx="6" fill="rgba(255,255,255,0.02)" stroke="rgba(255,255,255,0.06)" stroke-width="0.5"/>
  <rect x="222" y="212" width="60" height="4" rx="2" fill="rgba(255,255,255,0.06)"/>
  <rect x="222" y="222" width="100" height="3" rx="1.5" fill="rgba(255,255,255,0.04)"/>
  <rect x="222" y="230" width="80" height="3" rx="1.5" fill="rgba(255,255,255,0.03)"/>
  <rect x="350" y="200" width="130" height="50" rx="6" fill="rgba(255,255,255,0.02)" stroke="rgba(255,255,255,0.06)" stroke-width="0.5"/>
  <rect x="362" y="212" width="60" height="4" rx="2" fill="rgba(255,255,255,0.06)"/>
  <rect x="362" y="222" width="100" height="3" rx="1.5" fill="rgba(255,255,255,0.04)"/>
  <rect x="362" y="230" width="80" height="3" rx="1.5" fill="rgba(255,255,255,0.03)"/>
</svg>
