<svg xmlns="http://www.w3.org/2000/svg" width="600" height="340" viewBox="0 0 600 340">
  <defs><linearGradient id="bg4" x1="0" y1="0" x2="1" y2="1"><stop offset="0%" stop-color="#0c0c18"/><stop offset="100%" stop-color="#14142a"/></linearGradient></defs>
  <rect width="600" height="340" fill="url(#bg4)"/>
  <!-- Dashboard frame -->
  <rect x="60" y="30" width="480" height="280" rx="12" fill="rgba(255,255,255,0.02)" stroke="rgba(255,255,255,0.1)" stroke-width="1.5"/>
  <!-- Top KPI cards -->
  <rect x="80" y="50" width="110" height="50" rx="8" fill="rgba(255,159,65,0.04)" stroke="rgba(255,159,65,0.1)" stroke-width="0.5"/>
  <rect x="92" y="62" width="40" height="4" rx="2" fill="rgba(255,255,255,0.06)"/>
  <rect x="92" y="74" width="60" height="8" rx="3" fill="rgba(255,159,65,0.2)"/>
  <rect x="92" y="86" width="30" height="3" rx="1.5" fill="rgba(80,200,80,0.2)"/>
  <rect x="200" y="50" width="110" height="50" rx="8" fill="rgba(255,255,255,0.02)" stroke="rgba(255,255,255,0.06)" stroke-width="0.5"/>
  <rect x="212" y="62" width="40" height="4" rx="2" fill="rgba(255,255,255,0.06)"/>
  <rect x="212" y="74" width="50" height="8" rx="3" fill="rgba(255,255,255,0.08)"/>
  <rect x="212" y="86" width="30" height="3" rx="1.5" fill="rgba(255,80,80,0.2)"/>
  <rect x="320" y="50" width="110" height="50" rx="8" fill="rgba(255,255,255,0.02)" stroke="rgba(255,255,255,0.06)" stroke-width="0.5"/>
  <rect x="332" y="62" width="40" height="4" rx="2" fill="rgba(255,255,255,0.06)"/>
  <rect x="332" y="74" width="70" height="8" rx="3" fill="rgba(255,255,255,0.08)"/>
  <rect x="332" y="86" width="30" height="3" rx="1.5" fill="rgba(80,200,80,0.2)"/>
  <!-- Chart area -->
  <rect x="80" y="112" width="280" height="140" rx="8" fill="rgba(255,255,255,0.015)" stroke="rgba(255,255,255,0.06)" stroke-width="0.5"/>
  <!-- Chart bars -->
  <rect x="100" y="200" width="20" height="40" rx="3" fill="rgba(255,159,65,0.12)"/>
  <rect x="130" y="180" width="20" height="60" rx="3" fill="rgba(255,159,65,0.15)"/>
  <rect x="160" y="165" width="20" height="75" rx="3" fill="rgba(255,159,65,0.18)"/>
  <rect x="190" y="175" width="20" height="65" rx="3" fill="rgba(255,159,65,0.15)"/>
  <rect x="220" y="150" width="20" height="90" rx="3" fill="rgba(255,159,65,0.22)"/>
  <rect x="250" y="140" width="20" height="100" rx="3" fill="rgba(255,159,65,0.25)"/>
  <rect x="280" y="130" width="20" height="110" rx="3" fill="rgba(255,159,65,0.3)"/>
  <rect x="310" y="145" width="20" height="95" rx="3" fill="rgba(255,159,65,0.2)"/>
  <!-- AI insight box -->
  <rect x="376" y="112" width="150" height="140" rx="8" fill="rgba(255,159,65,0.03)" stroke="rgba(255,159,65,0.12)" stroke-width="0.5"/>
  <rect x="390" y="126" width="60" height="5" rx="2.5" fill="rgba(255,159,65,0.2)"/>
  <rect x="390" y="140" width="120" height="3" rx="1.5" fill="rgba(255,159,65,0.1)"/>
  <rect x="390" y="148" width="120" height="3" rx="1.5" fill="rgba(255,159,65,0.1)"/>
  <rect x="390" y="156" width="100" height="3" rx="1.5" fill="rgba(255,159,65,0.08)"/>
  <rect x="390" y="172" width="60" height="5" rx="2.5" fill="rgba(255,159,65,0.15)"/>
  <rect x="390" y="186" width="120" height="3" rx="1.5" fill="rgba(255,159,65,0.1)"/>
  <rect x="390" y="194" width="110" height="3" rx="1.5" fill="rgba(255,159,65,0.08)"/>
  <rect x="390" y="210" width="80" height="18" rx="9" fill="rgba(255,159,65,0.08)" stroke="rgba(255,159,65,0.15)" stroke-width="0.5"/>
  <text x="430" y="222" text-anchor="middle" fill="rgba(255,159,65,0.3)" font-size="7" font-family="Inter,sans-serif" font-weight="600">View Details</text>
  <!-- Bottom label -->
  <rect x="80" y="264" width="200" height="20" rx="10" fill="rgba(255,255,255,0.02)" stroke="rgba(255,255,255,0.06)" stroke-width="0.5"/>
  <text x="180" y="278" text-anchor="middle" fill="rgba(255,255,255,0.08)" font-size="8" font-family="Inter,sans-serif">AI-generated insights in plain language</text>
</svg>
