<svg xmlns="http://www.w3.org/2000/svg" width="600" height="360" viewBox="0 0 600 360">
  <defs>
    <linearGradient id="bg" x1="0" y1="0" x2="1" y2="1">
      <stop offset="0%" stop-color="#0c0c18"/>
      <stop offset="100%" stop-color="#14142a"/>
    </linearGradient>
  </defs>
  <rect width="600" height="360" fill="url(#bg)"/>
  <!-- Phone frame -->
  <rect x="220" y="20" width="160" height="310" rx="22" fill="rgba(255,255,255,0.02)" stroke="rgba(255,255,255,0.12)" stroke-width="2"/>
  <!-- Notch -->
  <rect x="270" y="26" width="60" height="5" rx="2.5" fill="rgba(255,255,255,0.08)"/>
  <!-- Screen area -->
  <rect x="230" y="40" width="140" height="274" rx="4" fill="rgba(255,255,255,0.015)"/>
  <!-- Chat header -->
  <rect x="240" y="48" width="60" height="5" rx="2.5" fill="rgba(255,159,65,0.2)"/>
  <rect x="240" y="58" width="40" height="3" rx="1.5" fill="rgba(255,255,255,0.06)"/>
  <!-- Chat bubbles -->
  <!-- User bubble -->
  <rect x="280" y="76" width="80" height="22" rx="8" fill="rgba(255,255,255,0.05)" stroke="rgba(255,255,255,0.08)" stroke-width="0.5"/>
  <rect x="288" y="84" width="55" height="3" rx="1.5" fill="rgba(255,255,255,0.1)"/>
  <!-- Bot reply -->
  <rect x="240" y="108" width="110" height="40" rx="8" fill="rgba(255,159,65,0.05)" stroke="rgba(255,159,65,0.12)" stroke-width="0.5"/>
  <rect x="248" y="116" width="85" height="3" rx="1.5" fill="rgba(255,159,65,0.18)"/>
  <rect x="248" y="124" width="70" height="3" rx="1.5" fill="rgba(255,159,65,0.12)"/>
  <rect x="248" y="132" width="55" height="3" rx="1.5" fill="rgba(255,159,65,0.08)"/>
  <!-- User bubble 2 -->
  <rect x="290" y="160" width="70" height="22" rx="8" fill="rgba(255,255,255,0.05)" stroke="rgba(255,255,255,0.08)" stroke-width="0.5"/>
  <rect x="298" y="168" width="45" height="3" rx="1.5" fill="rgba(255,255,255,0.1)"/>
  <!-- Bot reply 2 -->
  <rect x="240" y="192" width="100" height="32" rx="8" fill="rgba(255,159,65,0.05)" stroke="rgba(255,159,65,0.12)" stroke-width="0.5"/>
  <rect x="248" y="200" width="80" height="3" rx="1.5" fill="rgba(255,159,65,0.18)"/>
  <rect x="248" y="208" width="60" height="3" rx="1.5" fill="rgba(255,159,65,0.12)"/>
  <!-- Quick reply chips -->
  <rect x="240" y="236" width="52" height="16" rx="8" fill="rgba(255,159,65,0.06)" stroke="rgba(255,159,65,0.14)" stroke-width="0.5"/>
  <text x="266" y="247" text-anchor="middle" fill="rgba(255,159,65,0.4)" font-size="6" font-family="Inter,sans-serif" font-weight="600">Pricing</text>
  <rect x="298" y="236" width="60" height="16" rx="8" fill="rgba(255,255,255,0.03)" stroke="rgba(255,255,255,0.08)" stroke-width="0.5"/>
  <text x="328" y="247" text-anchor="middle" fill="rgba(255,255,255,0.2)" font-size="6" font-family="Inter,sans-serif" font-weight="600">Schedule</text>
  <!-- Input bar -->
  <rect x="240" y="262" width="120" height="20" rx="10" fill="rgba(255,255,255,0.03)" stroke="rgba(255,255,255,0.08)" stroke-width="0.5"/>
  <rect x="252" y="270" width="50" height="3" rx="1.5" fill="rgba(255,255,255,0.05)"/>
  <!-- Send button -->
  <circle cx="350" cy="272" r="7" fill="rgba(255,159,65,0.12)" stroke="rgba(255,159,65,0.2)" stroke-width="0.5"/>
  <!-- Home bar -->
  <rect x="275" y="320" width="50" height="3" rx="1.5" fill="rgba(255,255,255,0.1)"/>
  <!-- Floating dots to suggest "your website" context -->
  <circle cx="140" cy="100" r="2" fill="rgba(255,255,255,0.04)"/>
  <circle cx="460" cy="150" r="2" fill="rgba(255,255,255,0.04)"/>
  <circle cx="130" cy="220" r="1.5" fill="rgba(255,255,255,0.03)"/>
  <circle cx="470" cy="250" r="1.5" fill="rgba(255,255,255,0.03)"/>
  <!-- Label -->
  <text x="300" y="350" text-anchor="middle" fill="rgba(255,255,255,0.12)" font-size="10" font-family="Inter,-apple-system,sans-serif" font-weight="500">AI Chatbot on Mobile — Placeholder</text>
</svg>
