<svg xmlns="http://www.w3.org/2000/svg" width="600" height="340" viewBox="0 0 600 340">
  <defs><linearGradient id="bg5" x1="0" y1="0" x2="1" y2="1"><stop offset="0%" stop-color="#0c0c18"/><stop offset="100%" stop-color="#14142a"/></linearGradient></defs>
  <rect width="600" height="340" fill="url(#bg5)"/>
  <!-- Document frame -->
  <rect x="120" y="30" width="360" height="280" rx="10" fill="rgba(255,255,255,0.02)" stroke="rgba(255,255,255,0.1)" stroke-width="1.5"/>
  <!-- Document title -->
  <rect x="144" y="52" width="120" height="7" rx="3.5" fill="rgba(255,255,255,0.08)"/>
  <!-- Text lines with review highlights -->
  <rect x="144" y="74" width="312" height="4" rx="2" fill="rgba(255,255,255,0.04)"/>
  <rect x="144" y="84" width="312" height="4" rx="2" fill="rgba(255,255,255,0.04)"/>
  <rect x="144" y="94" width="250" height="4" rx="2" fill="rgba(255,255,255,0.04)"/>
  <!-- Highlighted issue 1 (orange) -->
  <rect x="144" y="110" width="312" height="4" rx="2" fill="rgba(255,159,65,0.08)"/>
  <rect x="140" y="106" width="320" height="14" rx="3" fill="none" stroke="rgba(255,159,65,0.25)" stroke-width="1" stroke-dasharray="4,2"/>
  <rect x="144" y="130" width="312" height="4" rx="2" fill="rgba(255,255,255,0.04)"/>
  <rect x="144" y="140" width="312" height="4" rx="2" fill="rgba(255,255,255,0.04)"/>
  <rect x="144" y="150" width="280" height="4" rx="2" fill="rgba(255,255,255,0.04)"/>
  <!-- Highlighted issue 2 (green = approved) -->
  <rect x="144" y="166" width="200" height="4" rx="2" fill="rgba(80,200,80,0.08)"/>
  <rect x="140" y="162" width="208" height="14" rx="3" fill="none" stroke="rgba(80,200,80,0.25)" stroke-width="1"/>
  <rect x="144" y="186" width="312" height="4" rx="2" fill="rgba(255,255,255,0.04)"/>
  <rect x="144" y="196" width="312" height="4" rx="2" fill="rgba(255,255,255,0.04)"/>
  <rect x="144" y="206" width="260" height="4" rx="2" fill="rgba(255,255,255,0.04)"/>
  <!-- Review panel on right edge -->
  <rect x="468" y="98" width="100" height="60" rx="6" fill="rgba(255,159,65,0.04)" stroke="rgba(255,159,65,0.15)" stroke-width="0.5"/>
  <rect x="478" y="108" width="50" height="4" rx="2" fill="rgba(255,159,65,0.2)"/>
  <rect x="478" y="118" width="80" height="3" rx="1.5" fill="rgba(255,159,65,0.1)"/>
  <rect x="478" y="126" width="70" height="3" rx="1.5" fill="rgba(255,159,65,0.08)"/>
  <rect x="478" y="138" width="40" height="10" rx="5" fill="rgba(255,159,65,0.1)" stroke="rgba(255,159,65,0.2)" stroke-width="0.5"/>
  <text x="498" y="146" text-anchor="middle" fill="rgba(255,159,65,0.35)" font-size="6" font-family="Inter,sans-serif" font-weight="600">Fix</text>
  <!-- Review panel 2 -->
  <rect x="356" y="157" width="100" height="44" rx="6" fill="rgba(80,200,80,0.04)" stroke="rgba(80,200,80,0.15)" stroke-width="0.5"/>
  <rect x="366" y="166" width="50" height="4" rx="2" fill="rgba(80,200,80,0.2)"/>
  <rect x="366" y="176" width="80" height="3" rx="1.5" fill="rgba(80,200,80,0.1)"/>
  <rect x="366" y="186" width="30" height="8" rx="4" fill="rgba(80,200,80,0.1)"/>
  <text x="381" y="193" text-anchor="middle" fill="rgba(80,200,80,0.35)" font-size="6" font-family="Inter,sans-serif" font-weight="600">OK</text>
  <!-- Bottom status bar -->
  <rect x="144" y="272" width="312" height="20" rx="10" fill="rgba(255,255,255,0.02)" stroke="rgba(255,255,255,0.06)" stroke-width="0.5"/>
  <circle cx="164" cy="282" r="5" fill="rgba(255,159,65,0.15)" stroke="rgba(255,159,65,0.3)" stroke-width="0.5"/>
  <text x="180" y="285" fill="rgba(255,255,255,0.1)" font-size="8" font-family="Inter,sans-serif">2 suggestions · 1 approved · Review complete</text>
</svg>
