<svg xmlns="http://www.w3.org/2000/svg" width="600" height="480" viewBox="0 0 600 480">
  <defs>
    <linearGradient id="bg" x1="0" y1="0" x2="1" y2="1">
      <stop offset="0%" stop-color="#0e0e1a"/>
      <stop offset="100%" stop-color="#171728"/>
    </linearGradient>
    <linearGradient id="accent" x1="0" y1="0" x2="1" y2="0">
      <stop offset="0%" stop-color="#FF9F41"/>
      <stop offset="100%" stop-color="#FF7733"/>
    </linearGradient>
  </defs>
  <rect width="600" height="480" rx="16" fill="url(#bg)"/>
  <rect x="1" y="1" width="598" height="478" rx="15" fill="none" stroke="rgba(255,255,255,0.06)" stroke-width="1"/>
  <!-- Browser chrome -->
  <rect x="50" y="40" width="500" height="340" rx="10" fill="rgba(255,255,255,0.02)" stroke="rgba(255,255,255,0.1)" stroke-width="1.5"/>
  <rect x="50" y="40" width="500" height="28" rx="10" fill="rgba(255,255,255,0.04)"/>
  <rect x="50" y="60" width="500" height="8" fill="rgba(255,255,255,0.04)"/>
  <circle cx="68" cy="54" r="4.5" fill="#ff5f56"/>
  <circle cx="84" cy="54" r="4.5" fill="#ffbd2e"/>
  <circle cx="100" cy="54" r="4.5" fill="#27c93f"/>
  <rect x="180" y="46" width="220" height="14" rx="7" fill="rgba(255,255,255,0.04)"/>
  <text x="290" y="56" text-anchor="middle" fill="rgba(255,255,255,0.15)" font-size="7" font-family="Inter,sans-serif">app.yourcompany.com/dashboard</text>
  <!-- Sidebar -->
  <rect x="58" y="72" width="90" height="300" fill="rgba(255,255,255,0.02)"/>
  <rect x="58" y="72" width="90" height="300" fill="none" stroke="rgba(255,255,255,0.04)" stroke-width="0.5"/>
  <rect x="68" y="82" width="70" height="8" rx="4" fill="rgba(255,159,65,0.15)"/>
  <rect x="68" y="104" width="60" height="5" rx="2.5" fill="rgba(255,255,255,0.1)"/>
  <rect x="68" y="118" width="50" height="5" rx="2.5" fill="rgba(255,255,255,0.06)"/>
  <rect x="68" y="132" width="55" height="5" rx="2.5" fill="rgba(255,255,255,0.06)"/>
  <rect x="68" y="146" width="45" height="5" rx="2.5" fill="rgba(255,255,255,0.06)"/>
  <rect x="68" y="160" width="52" height="5" rx="2.5" fill="rgba(255,255,255,0.06)"/>
  <!-- Main content area -->
  <rect x="156" y="72" width="386" height="300" fill="rgba(255,255,255,0.01)"/>
  <!-- Dashboard header -->
  <rect x="170" y="82" width="120" height="8" rx="4" fill="rgba(255,255,255,0.1)"/>
  <rect x="480" y="82" width="50" height="8" rx="4" fill="rgba(255,159,65,0.1)"/>
  <!-- Metric cards row -->
  <rect x="170" y="102" width="88" height="52" rx="6" fill="rgba(255,255,255,0.03)" stroke="rgba(255,255,255,0.06)" stroke-width="0.5"/>
  <rect x="178" y="112" width="40" height="4" rx="2" fill="rgba(255,255,255,0.06)"/>
  <rect x="178" y="126" width="55" height="8" rx="2" fill="rgba(255,159,65,0.18)"/>
  <rect x="178" y="140" width="30" height="3" rx="1.5" fill="rgba(39,201,63,0.2)"/>
  <rect x="268" y="102" width="88" height="52" rx="6" fill="rgba(255,255,255,0.03)" stroke="rgba(255,255,255,0.06)" stroke-width="0.5"/>
  <rect x="276" y="112" width="45" height="4" rx="2" fill="rgba(255,255,255,0.06)"/>
  <rect x="276" y="126" width="50" height="8" rx="2" fill="rgba(255,159,65,0.18)"/>
  <rect x="276" y="140" width="25" height="3" rx="1.5" fill="rgba(39,201,63,0.2)"/>
  <rect x="366" y="102" width="88" height="52" rx="6" fill="rgba(255,255,255,0.03)" stroke="rgba(255,255,255,0.06)" stroke-width="0.5"/>
  <rect x="374" y="112" width="38" height="4" rx="2" fill="rgba(255,255,255,0.06)"/>
  <rect x="374" y="126" width="48" height="8" rx="2" fill="rgba(255,159,65,0.18)"/>
  <rect x="374" y="140" width="35" height="3" rx="1.5" fill="rgba(255,159,65,0.15)"/>
  <rect x="464" y="102" width="68" height="52" rx="6" fill="rgba(255,255,255,0.03)" stroke="rgba(255,255,255,0.06)" stroke-width="0.5"/>
  <rect x="472" y="112" width="35" height="4" rx="2" fill="rgba(255,255,255,0.06)"/>
  <rect x="472" y="126" width="42" height="8" rx="2" fill="rgba(255,159,65,0.18)"/>
  <rect x="472" y="140" width="28" height="3" rx="1.5" fill="rgba(39,201,63,0.2)"/>
  <!-- Chart area -->
  <rect x="170" y="166" width="220" height="120" rx="6" fill="rgba(255,255,255,0.02)" stroke="rgba(255,255,255,0.05)" stroke-width="0.5"/>
  <rect x="180" y="176" width="60" height="5" rx="2.5" fill="rgba(255,255,255,0.08)"/>
  <polyline points="190,270 210,250 230,260 250,230 270,240 290,215 310,225 330,200 350,210 370,190" fill="none" stroke="rgba(255,159,65,0.3)" stroke-width="1.5" stroke-linecap="round" stroke-linejoin="round"/>
  <polyline points="190,272 210,260 230,268 250,252 270,258 290,245 310,255 330,240 350,248 370,235" fill="none" stroke="rgba(255,255,255,0.08)" stroke-width="1" stroke-dasharray="3,3"/>
  <!-- Table area -->
  <rect x="400" y="166" width="132" height="120" rx="6" fill="rgba(255,255,255,0.02)" stroke="rgba(255,255,255,0.05)" stroke-width="0.5"/>
  <rect x="410" y="176" width="50" height="5" rx="2.5" fill="rgba(255,255,255,0.08)"/>
  <rect x="410" y="192" width="112" height="1" fill="rgba(255,255,255,0.04)"/>
  <rect x="410" y="202" width="80" height="4" rx="2" fill="rgba(255,255,255,0.05)"/>
  <rect x="500" y="202" width="20" height="4" rx="2" fill="rgba(255,159,65,0.12)"/>
  <rect x="410" y="216" width="70" height="4" rx="2" fill="rgba(255,255,255,0.05)"/>
  <rect x="500" y="216" width="20" height="4" rx="2" fill="rgba(255,159,65,0.12)"/>
  <rect x="410" y="230" width="75" height="4" rx="2" fill="rgba(255,255,255,0.05)"/>
  <rect x="500" y="230" width="20" height="4" rx="2" fill="rgba(255,159,65,0.12)"/>
  <rect x="410" y="244" width="65" height="4" rx="2" fill="rgba(255,255,255,0.05)"/>
  <rect x="500" y="244" width="20" height="4" rx="2" fill="rgba(255,159,65,0.12)"/>
  <rect x="410" y="258" width="72" height="4" rx="2" fill="rgba(255,255,255,0.05)"/>
  <rect x="500" y="258" width="20" height="4" rx="2" fill="rgba(255,159,65,0.12)"/>
  <!-- Bottom status row -->
  <rect x="170" y="300" width="362" height="56" rx="6" fill="rgba(255,255,255,0.015)" stroke="rgba(255,255,255,0.04)" stroke-width="0.5"/>
  <rect x="184" y="314" width="60" height="4" rx="2" fill="rgba(255,255,255,0.07)"/>
  <rect x="184" y="324" width="90" height="4" rx="2" fill="rgba(255,255,255,0.04)"/>
  <rect x="184" y="338" width="50" height="4" rx="2" fill="rgba(39,201,63,0.12)"/>
  <rect x="320" y="314" width="60" height="4" rx="2" fill="rgba(255,255,255,0.07)"/>
  <rect x="320" y="324" width="80" height="4" rx="2" fill="rgba(255,255,255,0.04)"/>
  <rect x="320" y="338" width="55" height="4" rx="2" fill="rgba(255,159,65,0.12)"/>
  <rect x="450" y="314" width="60" height="4" rx="2" fill="rgba(255,255,255,0.07)"/>
  <rect x="450" y="324" width="70" height="4" rx="2" fill="rgba(255,255,255,0.04)"/>
  <rect x="450" y="338" width="45" height="4" rx="2" fill="rgba(39,201,63,0.12)"/>
  <!-- Label -->
  <text x="300" y="420" text-anchor="middle" fill="rgba(255,255,255,0.12)" font-size="10" font-family="Inter,-apple-system,sans-serif" font-weight="500">Web Application Dashboard — Placeholder</text>
  <rect x="215" y="435" width="170" height="2" rx="1" fill="url(#accent)" opacity="0.2"/>
</svg>
