<svg xmlns="http://www.w3.org/2000/svg" width="600" height="480" viewBox="0 0 600 480">
  <defs>
    <linearGradient id="bg" x1="0" y1="0" x2="1" y2="1">
      <stop offset="0%" stop-color="#0e0e1a"/>
      <stop offset="100%" stop-color="#171728"/>
    </linearGradient>
    <linearGradient id="accent" x1="0" y1="0" x2="1" y2="0">
      <stop offset="0%" stop-color="#FF9F41"/>
      <stop offset="100%" stop-color="#FF7733"/>
    </linearGradient>
  </defs>
  <rect width="600" height="480" rx="16" fill="url(#bg)"/>
  <rect x="1" y="1" width="598" height="478" rx="15" fill="none" stroke="rgba(255,255,255,0.06)" stroke-width="1"/>
  <!-- Team silhouettes -->
  <circle cx="220" cy="175" r="32" fill="rgba(255,159,65,0.08)" stroke="rgba(255,159,65,0.15)" stroke-width="1"/>
  <circle cx="220" cy="165" r="14" fill="rgba(255,159,65,0.12)"/>
  <ellipse cx="220" cy="200" rx="22" ry="12" fill="rgba(255,159,65,0.1)"/>
  <circle cx="300" cy="155" r="38" fill="rgba(255,255,255,0.04)" stroke="rgba(255,255,255,0.08)" stroke-width="1"/>
  <circle cx="300" cy="143" r="16" fill="rgba(255,255,255,0.06)"/>
  <ellipse cx="300" cy="182" rx="26" ry="14" fill="rgba(255,255,255,0.05)"/>
  <circle cx="380" cy="175" r="32" fill="rgba(255,170,51,0.08)" stroke="rgba(255,170,51,0.12)" stroke-width="1"/>
  <circle cx="380" cy="165" r="14" fill="rgba(255,170,51,0.1)"/>
  <ellipse cx="380" cy="200" rx="22" ry="12" fill="rgba(255,170,51,0.08)"/>
  <!-- Connection lines -->
  <line x1="252" y1="170" x2="262" y2="162" stroke="rgba(255,159,65,0.12)" stroke-width="1" stroke-dasharray="4,4"/>
  <line x1="338" y1="162" x2="348" y2="170" stroke="rgba(255,170,51,0.12)" stroke-width="1" stroke-dasharray="4,4"/>
  <!-- Decorative elements -->
  <rect x="175" y="250" width="250" height="1" fill="rgba(255,255,255,0.04)"/>
  <!-- Values grid -->
  <rect x="170" y="270" width="110" height="60" rx="8" fill="rgba(255,255,255,0.02)" stroke="rgba(255,255,255,0.05)" stroke-width="0.5"/>
  <rect x="180" y="282" width="40" height="4" rx="2" fill="rgba(255,159,65,0.25)"/>
  <rect x="180" y="294" width="80" height="3" rx="1.5" fill="rgba(255,255,255,0.06)"/>
  <rect x="180" y="304" width="70" height="3" rx="1.5" fill="rgba(255,255,255,0.04)"/>
  <rect x="320" y="270" width="110" height="60" rx="8" fill="rgba(255,255,255,0.02)" stroke="rgba(255,255,255,0.05)" stroke-width="0.5"/>
  <rect x="330" y="282" width="45" height="4" rx="2" fill="rgba(255,170,51,0.25)"/>
  <rect x="330" y="294" width="75" height="3" rx="1.5" fill="rgba(255,255,255,0.06)"/>
  <rect x="330" y="304" width="65" height="3" rx="1.5" fill="rgba(255,255,255,0.04)"/>
  <!-- Label -->
  <text x="300" y="390" text-anchor="middle" fill="rgba(255,255,255,0.25)" font-size="13" font-family="Inter, -apple-system, sans-serif" font-weight="500">Team Photo — Placeholder</text>
  <rect x="245" y="405" width="110" height="2" rx="1" fill="url(#accent)" opacity="0.3"/>
</svg>
