<svg xmlns="http://www.w3.org/2000/svg" width="600" height="480" viewBox="0 0 600 480">
  <defs>
    <linearGradient id="bg" x1="0" y1="0" x2="1" y2="1">
      <stop offset="0%" stop-color="#0e0e1a"/>
      <stop offset="100%" stop-color="#171728"/>
    </linearGradient>
    <linearGradient id="accent" x1="0" y1="0" x2="1" y2="0">
      <stop offset="0%" stop-color="#FF9F41"/>
      <stop offset="100%" stop-color="#FF7733"/>
    </linearGradient>
  </defs>
  <rect width="600" height="480" rx="16" fill="url(#bg)"/>
  <rect x="1" y="1" width="598" height="478" rx="15" fill="none" stroke="rgba(255,255,255,0.06)" stroke-width="1"/>
  <!-- Industry icons grid -->
  <!-- Building -->
  <rect x="140" y="110" width="100" height="100" rx="12" fill="rgba(255,255,255,0.02)" stroke="rgba(255,255,255,0.06)" stroke-width="1"/>
  <rect x="165" y="135" width="50" height="50" rx="4" fill="rgba(255,159,65,0.06)"/>
  <rect x="175" y="145" width="12" height="12" rx="2" fill="rgba(255,159,65,0.15)"/>
  <rect x="193" y="145" width="12" height="12" rx="2" fill="rgba(255,159,65,0.15)"/>
  <rect x="175" y="163" width="12" height="12" rx="2" fill="rgba(255,159,65,0.15)"/>
  <rect x="193" y="163" width="12" height="12" rx="2" fill="rgba(255,159,65,0.15)"/>
  <text x="190" y="200" text-anchor="middle" fill="rgba(255,255,255,0.2)" font-size="9" font-family="Inter, sans-serif">Business</text>
  <!-- Wrench -->
  <rect x="250" y="110" width="100" height="100" rx="12" fill="rgba(255,255,255,0.02)" stroke="rgba(255,255,255,0.06)" stroke-width="1"/>
  <circle cx="300" cy="150" r="16" fill="rgba(255,170,51,0.08)" stroke="rgba(255,170,51,0.15)" stroke-width="1"/>
  <circle cx="300" cy="150" r="6" fill="none" stroke="rgba(255,170,51,0.25)" stroke-width="1.5"/>
  <text x="300" y="200" text-anchor="middle" fill="rgba(255,255,255,0.2)" font-size="9" font-family="Inter, sans-serif">Services</text>
  <!-- Shield -->
  <rect x="360" y="110" width="100" height="100" rx="12" fill="rgba(255,255,255,0.02)" stroke="rgba(255,255,255,0.06)" stroke-width="1"/>
  <path d="M410,135 L430,142 L430,158 C430,168 422,176 410,180 C398,176 390,168 390,158 L390,142 Z" fill="rgba(255,159,65,0.06)" stroke="rgba(255,159,65,0.15)" stroke-width="1"/>
  <text x="410" y="200" text-anchor="middle" fill="rgba(255,255,255,0.2)" font-size="9" font-family="Inter, sans-serif">Regulated</text>
  <!-- Brain -->
  <rect x="195" y="230" width="100" height="100" rx="12" fill="rgba(255,255,255,0.02)" stroke="rgba(255,255,255,0.06)" stroke-width="1"/>
  <circle cx="245" cy="268" r="16" fill="rgba(255,159,65,0.06)" stroke="rgba(255,159,65,0.12)" stroke-width="1"/>
  <circle cx="245" cy="268" r="4" fill="rgba(255,159,65,0.2)"/>
  <text x="245" y="320" text-anchor="middle" fill="rgba(255,255,255,0.2)" font-size="9" font-family="Inter, sans-serif">AI-Ready</text>
  <!-- Box -->
  <rect x="305" y="230" width="100" height="100" rx="12" fill="rgba(255,255,255,0.02)" stroke="rgba(255,255,255,0.06)" stroke-width="1"/>
  <rect x="336" y="256" width="38" height="28" rx="4" fill="rgba(255,170,51,0.06)" stroke="rgba(255,170,51,0.12)" stroke-width="1"/>
  <rect x="340" y="252" width="30" height="4" rx="2" fill="rgba(255,170,51,0.1)"/>
  <text x="355" y="320" text-anchor="middle" fill="rgba(255,255,255,0.2)" font-size="9" font-family="Inter, sans-serif">Outgrown SaaS</text>
  <!-- Label -->
  <text x="300" y="395" text-anchor="middle" fill="rgba(255,255,255,0.25)" font-size="13" font-family="Inter, -apple-system, sans-serif" font-weight="500">Industries — Placeholder</text>
  <rect x="250" y="410" width="100" height="2" rx="1" fill="url(#accent)" opacity="0.3"/>
</svg>
