<svg xmlns="http://www.w3.org/2000/svg" width="600" height="480" viewBox="0 0 600 480">
  <defs>
    <linearGradient id="bg" x1="0" y1="0" x2="1" y2="1">
      <stop offset="0%" stop-color="#0e0e1a"/>
      <stop offset="100%" stop-color="#171728"/>
    </linearGradient>
    <linearGradient id="accent" x1="0" y1="0" x2="1" y2="0">
      <stop offset="0%" stop-color="#FF9F41"/>
      <stop offset="100%" stop-color="#FF7733"/>
    </linearGradient>
  </defs>
  <rect width="600" height="480" rx="16" fill="url(#bg)"/>
  <rect x="1" y="1" width="598" height="478" rx="15" fill="none" stroke="rgba(255,255,255,0.06)" stroke-width="1"/>
  <!-- Project cards layout -->
  <!-- Card 1 (featured) -->
  <rect x="100" y="90" width="400" height="140" rx="10" fill="rgba(255,255,255,0.03)" stroke="rgba(255,159,65,0.12)" stroke-width="1"/>
  <rect x="120" y="108" width="80" height="16" rx="8" fill="rgba(255,159,65,0.08)" stroke="rgba(255,159,65,0.15)" stroke-width="0.5"/>
  <text x="160" y="119" text-anchor="middle" fill="rgba(255,159,65,0.5)" font-size="8" font-family="Inter, sans-serif" font-weight="600">Featured</text>
  <rect x="120" y="135" width="200" height="8" rx="4" fill="rgba(255,255,255,0.1)"/>
  <rect x="120" y="152" width="280" height="4" rx="2" fill="rgba(255,255,255,0.05)"/>
  <rect x="120" y="164" width="250" height="4" rx="2" fill="rgba(255,255,255,0.04)"/>
  <rect x="120" y="190" width="60" height="18" rx="9" fill="rgba(255,159,65,0.06)"/>
  <text x="150" y="202" text-anchor="middle" fill="rgba(255,159,65,0.4)" font-size="8" font-family="Inter, sans-serif">HVAC</text>
  <rect x="188" y="190" width="80" height="18" rx="9" fill="rgba(255,255,255,0.03)"/>
  <text x="228" y="202" text-anchor="middle" fill="rgba(255,255,255,0.2)" font-size="8" font-family="Inter, sans-serif">Mobile App</text>
  <!-- Thumbnail area -->
  <rect x="420" y="108" width="60" height="100" rx="6" fill="rgba(255,255,255,0.03)" stroke="rgba(255,255,255,0.06)" stroke-width="0.5"/>
  <!-- Card 2 -->
  <rect x="100" y="250" width="190" height="110" rx="10" fill="rgba(255,255,255,0.02)" stroke="rgba(255,255,255,0.06)" stroke-width="1"/>
  <rect x="116" y="266" width="120" height="6" rx="3" fill="rgba(255,255,255,0.08)"/>
  <rect x="116" y="282" width="150" height="3" rx="1.5" fill="rgba(255,255,255,0.04)"/>
  <rect x="116" y="294" width="130" height="3" rx="1.5" fill="rgba(255,255,255,0.03)"/>
  <rect x="116" y="320" width="50" height="14" rx="7" fill="rgba(255,255,255,0.03)"/>
  <text x="141" y="330" text-anchor="middle" fill="rgba(255,255,255,0.2)" font-size="7" font-family="Inter, sans-serif">AI</text>
  <!-- Card 3 -->
  <rect x="310" y="250" width="190" height="110" rx="10" fill="rgba(255,255,255,0.02)" stroke="rgba(255,255,255,0.06)" stroke-width="1"/>
  <rect x="326" y="266" width="110" height="6" rx="3" fill="rgba(255,255,255,0.08)"/>
  <rect x="326" y="282" width="140" height="3" rx="1.5" fill="rgba(255,255,255,0.04)"/>
  <rect x="326" y="294" width="120" height="3" rx="1.5" fill="rgba(255,255,255,0.03)"/>
  <rect x="326" y="320" width="65" height="14" rx="7" fill="rgba(255,255,255,0.03)"/>
  <text x="358" y="330" text-anchor="middle" fill="rgba(255,255,255,0.2)" font-size="7" font-family="Inter, sans-serif">Web App</text>
  <!-- Label -->
  <text x="300" y="410" text-anchor="middle" fill="rgba(255,255,255,0.25)" font-size="13" font-family="Inter, -apple-system, sans-serif" font-weight="500">Portfolio Showcase — Placeholder</text>
  <rect x="235" y="425" width="130" height="2" rx="1" fill="url(#accent)" opacity="0.3"/>
</svg>
