<svg xmlns="http://www.w3.org/2000/svg" width="600" height="480" viewBox="0 0 600 480">
  <defs>
    <linearGradient id="bg" x1="0" y1="0" x2="1" y2="1">
      <stop offset="0%" stop-color="#0e0e1a"/>
      <stop offset="100%" stop-color="#171728"/>
    </linearGradient>
    <linearGradient id="accent" x1="0" y1="0" x2="1" y2="0">
      <stop offset="0%" stop-color="#FF9F41"/>
      <stop offset="100%" stop-color="#FF7733"/>
    </linearGradient>
  </defs>
  <rect width="600" height="480" rx="16" fill="url(#bg)"/>
  <rect x="1" y="1" width="598" height="478" rx="15" fill="none" stroke="rgba(255,255,255,0.06)" stroke-width="1"/>
  <!-- Timeline vertical line -->
  <line x1="180" y1="60" x2="180" y2="400" stroke="rgba(255,159,65,0.12)" stroke-width="2"/>
  <!-- Step 1 -->
  <circle cx="180" cy="90" r="16" fill="rgba(255,159,65,0.08)" stroke="rgba(255,159,65,0.25)" stroke-width="1.5"/>
  <text x="180" y="95" text-anchor="middle" fill="rgba(255,159,65,0.5)" font-size="11" font-family="Inter,sans-serif" font-weight="700">01</text>
  <rect x="210" y="74" width="180" height="44" rx="8" fill="rgba(255,255,255,0.03)" stroke="rgba(255,255,255,0.06)" stroke-width="0.5"/>
  <rect x="222" y="84" width="80" height="5" rx="2.5" fill="rgba(255,255,255,0.12)"/>
  <rect x="222" y="95" width="140" height="3" rx="1.5" fill="rgba(255,255,255,0.05)"/>
  <rect x="222" y="103" width="110" height="3" rx="1.5" fill="rgba(255,255,255,0.04)"/>
  <!-- Step 2 -->
  <circle cx="180" cy="180" r="16" fill="rgba(255,159,65,0.08)" stroke="rgba(255,159,65,0.25)" stroke-width="1.5"/>
  <text x="180" y="185" text-anchor="middle" fill="rgba(255,159,65,0.5)" font-size="11" font-family="Inter,sans-serif" font-weight="700">02</text>
  <rect x="210" y="164" width="200" height="44" rx="8" fill="rgba(255,255,255,0.03)" stroke="rgba(255,255,255,0.06)" stroke-width="0.5"/>
  <rect x="222" y="174" width="90" height="5" rx="2.5" fill="rgba(255,255,255,0.12)"/>
  <rect x="222" y="185" width="160" height="3" rx="1.5" fill="rgba(255,255,255,0.05)"/>
  <rect x="222" y="193" width="130" height="3" rx="1.5" fill="rgba(255,255,255,0.04)"/>
  <!-- Step 3 -->
  <circle cx="180" cy="270" r="16" fill="rgba(255,159,65,0.08)" stroke="rgba(255,159,65,0.25)" stroke-width="1.5"/>
  <text x="180" y="275" text-anchor="middle" fill="rgba(255,159,65,0.5)" font-size="11" font-family="Inter,sans-serif" font-weight="700">03</text>
  <rect x="210" y="254" width="190" height="44" rx="8" fill="rgba(255,255,255,0.03)" stroke="rgba(255,255,255,0.06)" stroke-width="0.5"/>
  <rect x="222" y="264" width="75" height="5" rx="2.5" fill="rgba(255,255,255,0.12)"/>
  <rect x="222" y="275" width="150" height="3" rx="1.5" fill="rgba(255,255,255,0.05)"/>
  <rect x="222" y="283" width="120" height="3" rx="1.5" fill="rgba(255,255,255,0.04)"/>
  <!-- Step 4 -->
  <circle cx="180" cy="360" r="16" fill="rgba(255,159,65,0.1)" stroke="rgba(255,159,65,0.3)" stroke-width="1.5"/>
  <text x="180" y="365" text-anchor="middle" fill="rgba(255,159,65,0.6)" font-size="11" font-family="Inter,sans-serif" font-weight="700">04</text>
  <rect x="210" y="344" width="210" height="44" rx="8" fill="rgba(255,255,255,0.03)" stroke="rgba(255,159,65,0.08)" stroke-width="0.5"/>
  <rect x="222" y="354" width="100" height="5" rx="2.5" fill="rgba(255,255,255,0.12)"/>
  <rect x="222" y="365" width="170" height="3" rx="1.5" fill="rgba(255,255,255,0.05)"/>
  <rect x="222" y="373" width="140" height="3" rx="1.5" fill="rgba(255,255,255,0.04)"/>
  <!-- Checkmarks on left -->
  <circle cx="100" cy="90" r="8" fill="rgba(39,201,63,0.08)" stroke="rgba(39,201,63,0.15)" stroke-width="0.5"/>
  <text x="100" y="94" text-anchor="middle" fill="rgba(39,201,63,0.35)" font-size="10" font-family="Inter,sans-serif">✓</text>
  <circle cx="100" cy="180" r="8" fill="rgba(39,201,63,0.08)" stroke="rgba(39,201,63,0.15)" stroke-width="0.5"/>
  <text x="100" y="184" text-anchor="middle" fill="rgba(39,201,63,0.35)" font-size="10" font-family="Inter,sans-serif">✓</text>
  <circle cx="100" cy="270" r="8" fill="rgba(39,201,63,0.08)" stroke="rgba(39,201,63,0.15)" stroke-width="0.5"/>
  <text x="100" y="274" text-anchor="middle" fill="rgba(39,201,63,0.35)" font-size="10" font-family="Inter,sans-serif">✓</text>
  <circle cx="100" cy="360" r="8" fill="rgba(255,159,65,0.08)" stroke="rgba(255,159,65,0.15)" stroke-width="0.5"/>
  <text x="100" y="364" text-anchor="middle" fill="rgba(255,159,65,0.3)" font-size="10" font-family="Inter,sans-serif">∞</text>
  <!-- Label -->
  <text x="300" y="440" text-anchor="middle" fill="rgba(255,255,255,0.12)" font-size="10" font-family="Inter,-apple-system,sans-serif" font-weight="500">Our Process — Placeholder</text>
  <rect x="230" y="455" width="140" height="2" rx="1" fill="url(#accent)" opacity="0.2"/>
</svg>
