<svg xmlns="http://www.w3.org/2000/svg" width="600" height="480" viewBox="0 0 600 480">
  <defs>
    <linearGradient id="bg" x1="0" y1="0" x2="1" y2="1">
      <stop offset="0%" stop-color="#0e0e1a"/>
      <stop offset="100%" stop-color="#171728"/>
    </linearGradient>
    <linearGradient id="accent" x1="0" y1="0" x2="1" y2="0">
      <stop offset="0%" stop-color="#FF9F41"/>
      <stop offset="100%" stop-color="#FF7733"/>
    </linearGradient>
  </defs>
  <rect width="600" height="480" rx="16" fill="url(#bg)"/>
  <rect x="1" y="1" width="598" height="478" rx="15" fill="none" stroke="rgba(255,255,255,0.06)" stroke-width="1"/>
  <!-- Monitor frame -->
  <rect x="120" y="80" width="360" height="225" rx="8" fill="none" stroke="rgba(255,255,255,0.1)" stroke-width="1.5"/>
  <rect x="120" y="80" width="360" height="24" rx="8" fill="rgba(255,255,255,0.04)"/>
  <circle cx="137" cy="92" r="4" fill="#ff5f56"/>
  <circle cx="151" cy="92" r="4" fill="#ffbd2e"/>
  <circle cx="165" cy="92" r="4" fill="#27c93f"/>
  <!-- Sidebar -->
  <rect x="120" y="104" width="80" height="201" fill="rgba(255,255,255,0.02)"/>
  <line x1="200" y1="104" x2="200" y2="305" stroke="rgba(255,255,255,0.06)" stroke-width="1"/>
  <!-- Sidebar items -->
  <rect x="130" y="116" width="60" height="6" rx="3" fill="rgba(255,159,65,0.3)"/>
  <rect x="130" y="134" width="50" height="4" rx="2" fill="rgba(255,255,255,0.08)"/>
  <rect x="130" y="148" width="55" height="4" rx="2" fill="rgba(255,255,255,0.08)"/>
  <rect x="130" y="162" width="45" height="4" rx="2" fill="rgba(255,255,255,0.08)"/>
  <rect x="130" y="176" width="52" height="4" rx="2" fill="rgba(255,255,255,0.08)"/>
  <!-- Chat area -->
  <rect x="212" y="116" width="180" height="28" rx="6" fill="rgba(255,255,255,0.03)" stroke="rgba(255,255,255,0.06)" stroke-width="0.5"/>
  <rect x="220" y="126" width="100" height="4" rx="2" fill="rgba(255,255,255,0.06)"/>
  <rect x="212" y="156" width="140" height="20" rx="6" fill="rgba(255,159,65,0.08)"/>
  <rect x="220" y="163" width="80" height="4" rx="2" fill="rgba(255,159,65,0.2)"/>
  <rect x="260" y="188" width="180" height="28" rx="6" fill="rgba(255,255,255,0.03)" stroke="rgba(255,255,255,0.06)" stroke-width="0.5"/>
  <rect x="268" y="198" width="120" height="4" rx="2" fill="rgba(255,255,255,0.06)"/>
  <rect x="212" y="228" width="160" height="20" rx="6" fill="rgba(255,159,65,0.08)"/>
  <rect x="220" y="235" width="90" height="4" rx="2" fill="rgba(255,159,65,0.2)"/>
  <!-- Input bar -->
  <rect x="212" y="272" width="256" height="24" rx="12" fill="rgba(255,255,255,0.04)" stroke="rgba(255,255,255,0.08)" stroke-width="0.5"/>
  <!-- Model badges -->
  <rect x="400" y="116" width="60" height="16" rx="4" fill="rgba(255,159,65,0.1)" stroke="rgba(255,159,65,0.2)" stroke-width="0.5"/>
  <text x="430" y="127" text-anchor="middle" fill="rgba(255,159,65,0.6)" font-size="8" font-family="Inter, sans-serif">GPT-4</text>
  <rect x="400" y="140" width="60" height="16" rx="4" fill="rgba(255,255,255,0.03)" stroke="rgba(255,255,255,0.08)" stroke-width="0.5"/>
  <text x="430" y="151" text-anchor="middle" fill="rgba(255,255,255,0.3)" font-size="8" font-family="Inter, sans-serif">Claude</text>
  <!-- Stand -->
  <rect x="270" y="305" width="60" height="30" fill="rgba(255,255,255,0.04)"/>
  <rect x="240" y="335" width="120" height="6" rx="3" fill="rgba(255,255,255,0.06)"/>
  <!-- Label -->
  <text x="300" y="395" text-anchor="middle" fill="rgba(255,255,255,0.25)" font-size="13" font-family="Inter, -apple-system, sans-serif" font-weight="500">Vault Platform — Screenshot Placeholder</text>
  <rect x="235" y="410" width="130" height="2" rx="1" fill="url(#accent)" opacity="0.3"/>
</svg>
