<svg xmlns="http://www.w3.org/2000/svg" width="600" height="340" viewBox="0 0 600 340">
  <defs>
    <linearGradient id="bg" x1="0" y1="0" x2="1" y2="1">
      <stop offset="0%" stop-color="#0c0c18"/>
      <stop offset="100%" stop-color="#14142a"/>
    </linearGradient>
    <linearGradient id="acc" x1="0" y1="0" x2="1" y2="0">
      <stop offset="0%" stop-color="#FF9F41"/>
      <stop offset="100%" stop-color="#FF7733"/>
    </linearGradient>
  </defs>
  <rect width="600" height="340" fill="url(#bg)"/>
  <!-- Central brain node -->
  <circle cx="300" cy="145" r="48" fill="rgba(255,159,65,0.05)" stroke="rgba(255,159,65,0.14)" stroke-width="1.5"/>
  <circle cx="300" cy="145" r="28" fill="rgba(255,159,65,0.08)" stroke="rgba(255,159,65,0.12)" stroke-width="1"/>
  <circle cx="300" cy="145" r="7" fill="rgba(255,159,65,0.45)"/>
  <!-- Inner nodes -->
  <circle cx="265" cy="120" r="4" fill="rgba(255,255,255,0.18)"/>
  <circle cx="335" cy="120" r="4" fill="rgba(255,255,255,0.18)"/>
  <circle cx="275" cy="170" r="4" fill="rgba(255,255,255,0.18)"/>
  <circle cx="325" cy="170" r="4" fill="rgba(255,255,255,0.18)"/>
  <circle cx="300" cy="100" r="4" fill="rgba(255,255,255,0.18)"/>
  <circle cx="300" cy="190" r="4" fill="rgba(255,255,255,0.18)"/>
  <!-- Connections from center -->
  <line x1="300" y1="145" x2="265" y2="120" stroke="rgba(255,159,65,0.18)" stroke-width="1"/>
  <line x1="300" y1="145" x2="335" y2="120" stroke="rgba(255,159,65,0.18)" stroke-width="1"/>
  <line x1="300" y1="145" x2="275" y2="170" stroke="rgba(255,159,65,0.18)" stroke-width="1"/>
  <line x1="300" y1="145" x2="325" y2="170" stroke="rgba(255,159,65,0.18)" stroke-width="1"/>
  <line x1="300" y1="145" x2="300" y2="100" stroke="rgba(255,159,65,0.18)" stroke-width="1"/>
  <line x1="300" y1="145" x2="300" y2="190" stroke="rgba(255,159,65,0.18)" stroke-width="1"/>
  <!-- Outer ring nodes -->
  <circle cx="220" cy="95" r="3" fill="rgba(255,255,255,0.1)"/>
  <circle cx="380" cy="95" r="3" fill="rgba(255,255,255,0.1)"/>
  <circle cx="220" cy="195" r="3" fill="rgba(255,255,255,0.1)"/>
  <circle cx="380" cy="195" r="3" fill="rgba(255,255,255,0.1)"/>
  <line x1="265" y1="120" x2="220" y2="95" stroke="rgba(255,255,255,0.06)" stroke-width="0.5"/>
  <line x1="335" y1="120" x2="380" y2="95" stroke="rgba(255,255,255,0.06)" stroke-width="0.5"/>
  <line x1="275" y1="170" x2="220" y2="195" stroke="rgba(255,255,255,0.06)" stroke-width="0.5"/>
  <line x1="325" y1="170" x2="380" y2="195" stroke="rgba(255,255,255,0.06)" stroke-width="0.5"/>
  <!-- Model badges -->
  <rect x="155" y="235" width="72" height="24" rx="12" fill="rgba(255,159,65,0.08)" stroke="rgba(255,159,65,0.18)" stroke-width="0.5"/>
  <text x="191" y="251" text-anchor="middle" fill="rgba(255,159,65,0.55)" font-size="9" font-family="Inter,sans-serif" font-weight="600">ChatGPT</text>
  <rect x="240" y="235" width="60" height="24" rx="12" fill="rgba(255,255,255,0.04)" stroke="rgba(255,255,255,0.1)" stroke-width="0.5"/>
  <text x="270" y="251" text-anchor="middle" fill="rgba(255,255,255,0.3)" font-size="9" font-family="Inter,sans-serif" font-weight="600">Claude</text>
  <rect x="313" y="235" width="65" height="24" rx="12" fill="rgba(255,255,255,0.04)" stroke="rgba(255,255,255,0.1)" stroke-width="0.5"/>
  <text x="345" y="251" text-anchor="middle" fill="rgba(255,255,255,0.3)" font-size="9" font-family="Inter,sans-serif" font-weight="600">Gemini</text>
  <rect x="391" y="235" width="55" height="24" rx="12" fill="rgba(255,255,255,0.04)" stroke="rgba(255,255,255,0.1)" stroke-width="0.5"/>
  <text x="418" y="251" text-anchor="middle" fill="rgba(255,255,255,0.3)" font-size="9" font-family="Inter,sans-serif" font-weight="600">Grok</text>
  <!-- Label -->
  <text x="300" y="302" text-anchor="middle" fill="rgba(255,255,255,0.14)" font-size="11" font-family="Inter,-apple-system,sans-serif" font-weight="500">AI Systems — Placeholder</text>
</svg>
