<svg xmlns="http://www.w3.org/2000/svg" width="600" height="340" viewBox="0 0 600 340">
  <defs>
    <linearGradient id="bg" x1="0" y1="0" x2="1" y2="1">
      <stop offset="0%" stop-color="#0c0c18"/>
      <stop offset="100%" stop-color="#14142a"/>
    </linearGradient>
  </defs>
  <rect width="600" height="340" fill="url(#bg)"/>
  <!-- Browser chrome -->
  <rect x="80" y="40" width="440" height="240" rx="10" fill="rgba(255,255,255,0.02)" stroke="rgba(255,255,255,0.1)" stroke-width="1.5"/>
  <rect x="80" y="40" width="440" height="26" rx="10" fill="rgba(255,255,255,0.04)"/>
  <rect x="80" y="58" width="440" height="8" fill="rgba(255,255,255,0.04)"/>
  <circle cx="96" cy="53" r="4" fill="#ff5f56"/>
  <circle cx="110" cy="53" r="4" fill="#ffbd2e"/>
  <circle cx="124" cy="53" r="4" fill="#27c93f"/>
  <!-- URL bar -->
  <rect x="180" y="45" width="200" height="14" rx="7" fill="rgba(255,255,255,0.04)"/>
  <text x="280" y="55" text-anchor="middle" fill="rgba(255,255,255,0.15)" font-size="7" font-family="Inter,sans-serif">app.yourcompany.com</text>
  <!-- Dashboard header -->
  <rect x="96" y="78" width="90" height="7" rx="3.5" fill="rgba(255,159,65,0.25)"/>
  <rect x="450" y="76" width="54" height="16" rx="8" fill="rgba(255,159,65,0.08)" stroke="rgba(255,159,65,0.16)" stroke-width="0.5"/>
  <text x="477" y="87" text-anchor="middle" fill="rgba(255,159,65,0.45)" font-size="7" font-family="Inter,sans-serif" font-weight="600">+ New</text>
  <!-- Stat cards row -->
  <rect x="96" y="98" width="130" height="46" rx="6" fill="rgba(255,255,255,0.03)" stroke="rgba(255,255,255,0.06)" stroke-width="0.5"/>
  <rect x="106" y="106" width="40" height="3" rx="1.5" fill="rgba(255,255,255,0.08)"/>
  <text x="106" y="130" fill="rgba(255,159,65,0.5)" font-size="17" font-family="Inter,sans-serif" font-weight="700">847</text>
  <rect x="240" y="98" width="130" height="46" rx="6" fill="rgba(255,255,255,0.03)" stroke="rgba(255,255,255,0.06)" stroke-width="0.5"/>
  <rect x="250" y="106" width="48" height="3" rx="1.5" fill="rgba(255,255,255,0.08)"/>
  <text x="250" y="130" fill="rgba(255,255,255,0.25)" font-size="17" font-family="Inter,sans-serif" font-weight="700">92%</text>
  <rect x="384" y="98" width="120" height="46" rx="6" fill="rgba(255,255,255,0.03)" stroke="rgba(255,255,255,0.06)" stroke-width="0.5"/>
  <rect x="394" y="106" width="52" height="3" rx="1.5" fill="rgba(255,255,255,0.08)"/>
  <text x="394" y="130" fill="rgba(255,255,255,0.25)" font-size="17" font-family="Inter,sans-serif" font-weight="700">$24k</text>
  <!-- Table rows -->
  <rect x="96" y="158" width="408" height="1" fill="rgba(255,255,255,0.06)"/>
  <rect x="96" y="168" width="55" height="3" rx="1.5" fill="rgba(255,255,255,0.1)"/>
  <rect x="200" y="168" width="40" height="3" rx="1.5" fill="rgba(255,255,255,0.06)"/>
  <rect x="310" y="168" width="50" height="3" rx="1.5" fill="rgba(255,255,255,0.06)"/>
  <rect x="430" y="165" width="40" height="12" rx="6" fill="rgba(255,159,65,0.08)"/>
  <rect x="96" y="186" width="408" height="1" fill="rgba(255,255,255,0.03)"/>
  <rect x="96" y="196" width="60" height="3" rx="1.5" fill="rgba(255,255,255,0.08)"/>
  <rect x="200" y="196" width="35" height="3" rx="1.5" fill="rgba(255,255,255,0.06)"/>
  <rect x="310" y="196" width="45" height="3" rx="1.5" fill="rgba(255,255,255,0.06)"/>
  <rect x="430" y="193" width="40" height="12" rx="6" fill="rgba(255,255,255,0.04)"/>
  <rect x="96" y="214" width="408" height="1" fill="rgba(255,255,255,0.03)"/>
  <rect x="96" y="224" width="50" height="3" rx="1.5" fill="rgba(255,255,255,0.08)"/>
  <rect x="200" y="224" width="30" height="3" rx="1.5" fill="rgba(255,255,255,0.06)"/>
  <rect x="310" y="224" width="55" height="3" rx="1.5" fill="rgba(255,255,255,0.06)"/>
  <rect x="430" y="221" width="40" height="12" rx="6" fill="rgba(255,255,255,0.04)"/>
  <!-- Label -->
  <text x="300" y="312" text-anchor="middle" fill="rgba(255,255,255,0.14)" font-size="11" font-family="Inter,-apple-system,sans-serif" font-weight="500">Web Apps — Placeholder</text>
</svg>
