<svg xmlns="http://www.w3.org/2000/svg" width="600" height="340" viewBox="0 0 600 340">
  <defs>
    <linearGradient id="bg" x1="0" y1="0" x2="1" y2="1">
      <stop offset="0%" stop-color="#0c0c18"/>
      <stop offset="100%" stop-color="#14142a"/>
    </linearGradient>
  </defs>
  <rect width="600" height="340" fill="url(#bg)"/>
  <!-- Phone 1 (left, slightly behind) -->
  <rect x="195" y="40" width="96" height="195" rx="14" fill="rgba(255,255,255,0.03)" stroke="rgba(255,255,255,0.1)" stroke-width="1.5"/>
  <rect x="215" y="46" width="56" height="4" rx="2" fill="rgba(255,255,255,0.08)"/>
  <rect x="203" y="58" width="80" height="160" rx="3" fill="rgba(255,255,255,0.02)"/>
  <!-- Phone 1 UI — list items -->
  <rect x="210" y="66" width="66" height="18" rx="4" fill="rgba(255,159,65,0.08)"/>
  <rect x="216" y="72" width="40" height="4" rx="2" fill="rgba(255,159,65,0.2)"/>
  <rect x="210" y="92" width="66" height="14" rx="3" fill="rgba(255,255,255,0.03)" stroke="rgba(255,255,255,0.05)" stroke-width="0.5"/>
  <rect x="216" y="96" width="36" height="3" rx="1.5" fill="rgba(255,255,255,0.08)"/>
  <rect x="210" y="112" width="66" height="14" rx="3" fill="rgba(255,255,255,0.03)" stroke="rgba(255,255,255,0.05)" stroke-width="0.5"/>
  <rect x="216" y="116" width="42" height="3" rx="1.5" fill="rgba(255,255,255,0.08)"/>
  <rect x="210" y="132" width="66" height="14" rx="3" fill="rgba(255,255,255,0.03)" stroke="rgba(255,255,255,0.05)" stroke-width="0.5"/>
  <rect x="216" y="136" width="30" height="3" rx="1.5" fill="rgba(255,255,255,0.08)"/>
  <!-- Phone 1 bottom nav -->
  <circle cx="225" cy="200" r="3" fill="rgba(255,159,65,0.35)"/>
  <circle cx="243" cy="200" r="3" fill="rgba(255,255,255,0.08)"/>
  <circle cx="261" cy="200" r="3" fill="rgba(255,255,255,0.08)"/>
  <rect x="226" y="222" width="34" height="3" rx="1.5" fill="rgba(255,255,255,0.1)"/>

  <!-- Phone 2 (right, foreground, slightly larger) -->
  <rect x="310" y="25" width="105" height="210" rx="16" fill="rgba(255,255,255,0.03)" stroke="rgba(255,159,65,0.14)" stroke-width="1.5"/>
  <rect x="332" y="31" width="60" height="4" rx="2" fill="rgba(255,255,255,0.08)"/>
  <rect x="318" y="43" width="89" height="174" rx="3" fill="rgba(255,255,255,0.02)"/>
  <!-- Phone 2 UI — scheduling grid -->
  <rect x="324" y="52" width="77" height="16" rx="4" fill="rgba(255,159,65,0.1)"/>
  <rect x="330" y="57" width="42" height="4" rx="2" fill="rgba(255,159,65,0.25)"/>
  <rect x="324" y="76" width="36" height="32" rx="4" fill="rgba(255,255,255,0.03)" stroke="rgba(255,255,255,0.06)" stroke-width="0.5"/>
  <rect x="365" y="76" width="36" height="32" rx="4" fill="rgba(255,255,255,0.03)" stroke="rgba(255,255,255,0.06)" stroke-width="0.5"/>
  <rect x="324" y="114" width="36" height="32" rx="4" fill="rgba(255,159,65,0.07)" stroke="rgba(255,159,65,0.12)" stroke-width="0.5"/>
  <rect x="365" y="114" width="36" height="32" rx="4" fill="rgba(255,255,255,0.03)" stroke="rgba(255,255,255,0.06)" stroke-width="0.5"/>
  <!-- Phone 2 CTA button -->
  <rect x="324" y="160" width="77" height="22" rx="11" fill="rgba(255,159,65,0.12)" stroke="rgba(255,159,65,0.22)" stroke-width="0.5"/>
  <text x="362" y="174" text-anchor="middle" fill="rgba(255,159,65,0.55)" font-size="8" font-family="Inter,sans-serif" font-weight="600">Book Now</text>
  <!-- Phone 2 bottom -->
  <rect x="342" y="222" width="40" height="3" rx="1.5" fill="rgba(255,255,255,0.1)"/>
  <!-- iOS / Android badges -->
  <rect x="215" y="268" width="70" height="22" rx="11" fill="rgba(255,255,255,0.04)" stroke="rgba(255,255,255,0.1)" stroke-width="0.5"/>
  <text x="250" y="283" text-anchor="middle" fill="rgba(255,255,255,0.3)" font-size="9" font-family="Inter,sans-serif" font-weight="600">iOS</text>
  <rect x="295" y="268" width="90" height="22" rx="11" fill="rgba(255,255,255,0.04)" stroke="rgba(255,255,255,0.1)" stroke-width="0.5"/>
  <text x="340" y="283" text-anchor="middle" fill="rgba(255,255,255,0.3)" font-size="9" font-family="Inter,sans-serif" font-weight="600">Android</text>
  <!-- Label -->
  <text x="300" y="318" text-anchor="middle" fill="rgba(255,255,255,0.14)" font-size="11" font-family="Inter,-apple-system,sans-serif" font-weight="500">Mobile Apps — Placeholder</text>
</svg>
