<svg xmlns="http://www.w3.org/2000/svg" width="600" height="480" viewBox="0 0 600 480">
  <defs>
    <linearGradient id="bg" x1="0" y1="0" x2="1" y2="1">
      <stop offset="0%" stop-color="#0e0e1a"/>
      <stop offset="100%" stop-color="#171728"/>
    </linearGradient>
    <linearGradient id="accent" x1="0" y1="0" x2="1" y2="0">
      <stop offset="0%" stop-color="#FF9F41"/>
      <stop offset="100%" stop-color="#FF7733"/>
    </linearGradient>
  </defs>
  <rect width="600" height="480" rx="16" fill="url(#bg)"/>
  <rect x="1" y="1" width="598" height="478" rx="15" fill="none" stroke="rgba(255,255,255,0.06)" stroke-width="1"/>

  <!-- ═══ Project 1 (top-left) — General Heating & Air Mobile App ═══ -->
  <rect x="30" y="30" width="165" height="200" rx="10" fill="rgba(255,255,255,0.025)" stroke="rgba(255,159,65,0.15)" stroke-width="1"/>
  <!-- Phone frame -->
  <rect x="62" y="42" width="100" height="175" rx="14" fill="rgba(255,255,255,0.02)" stroke="rgba(255,255,255,0.08)" stroke-width="1"/>
  <rect x="87" y="48" width="50" height="4" rx="2" fill="rgba(255,255,255,0.06)"/>
  <rect x="70" y="60" width="84" height="140" rx="3" fill="rgba(255,255,255,0.01)"/>
  <!-- App UI -->
  <rect x="76" y="68" width="72" height="16" rx="3" fill="rgba(255,159,65,0.08)"/>
  <rect x="82" y="74" width="40" height="3" rx="1.5" fill="rgba(255,159,65,0.2)"/>
  <rect x="76" y="92" width="72" height="18" rx="4" fill="rgba(255,255,255,0.03)" stroke="rgba(255,255,255,0.05)" stroke-width="0.5"/>
  <rect x="82" y="98" width="45" height="3" rx="1.5" fill="rgba(255,255,255,0.08)"/>
  <rect x="76" y="116" width="72" height="18" rx="4" fill="rgba(255,255,255,0.03)" stroke="rgba(255,255,255,0.05)" stroke-width="0.5"/>
  <rect x="82" y="122" width="38" height="3" rx="1.5" fill="rgba(255,255,255,0.08)"/>
  <rect x="76" y="144" width="72" height="20" rx="10" fill="rgba(255,159,65,0.1)" stroke="rgba(255,159,65,0.18)" stroke-width="0.5"/>
  <text x="112" y="157" text-anchor="middle" fill="rgba(255,159,65,0.4)" font-size="7" font-family="Inter,sans-serif" font-weight="600">Request Service</text>
  <rect x="92" y="202" width="40" height="3" rx="1.5" fill="rgba(255,255,255,0.08)"/>
  <text x="112" y="222" text-anchor="middle" fill="rgba(255,255,255,0.12)" font-size="7" font-family="Inter,sans-serif" font-weight="500">General Heating & Air</text>

  <!-- ═══ Project 2 (top-right) — Vault Platform ═══ -->
  <rect x="210" y="20" width="185" height="195" rx="10" fill="rgba(255,255,255,0.025)" stroke="rgba(100,140,255,0.12)" stroke-width="1"/>
  <!-- Browser chrome -->
  <rect x="222" y="32" width="161" height="168" rx="6" fill="rgba(255,255,255,0.015)"/>
  <rect x="222" y="32" width="161" height="16" rx="6" fill="rgba(255,255,255,0.03)"/>
  <circle cx="232" cy="40" r="2.5" fill="#ff5f56"/>
  <circle cx="241" cy="40" r="2.5" fill="#ffbd2e"/>
  <circle cx="250" cy="40" r="2.5" fill="#27c93f"/>
  <!-- Sidebar -->
  <rect x="228" y="52" width="36" height="140" fill="rgba(255,255,255,0.02)"/>
  <rect x="234" y="58" width="24" height="4" rx="2" fill="rgba(255,159,65,0.12)"/>
  <rect x="234" y="68" width="20" height="3" rx="1.5" fill="rgba(255,255,255,0.06)"/>
  <rect x="234" y="76" width="18" height="3" rx="1.5" fill="rgba(255,255,255,0.04)"/>
  <!-- Chat area -->
  <rect x="270" y="58" width="100" height="14" rx="4" fill="rgba(255,255,255,0.03)" stroke="rgba(255,255,255,0.04)" stroke-width="0.5"/>
  <rect x="276" y="63" width="50" height="3" rx="1.5" fill="rgba(255,255,255,0.06)"/>
  <rect x="310" y="80" width="50" height="20" rx="4" fill="rgba(255,159,65,0.04)" stroke="rgba(255,159,65,0.08)" stroke-width="0.5"/>
  <rect x="316" y="86" width="36" height="3" rx="1.5" fill="rgba(255,159,65,0.12)"/>
  <rect x="270" y="108" width="60" height="14" rx="4" fill="rgba(255,255,255,0.03)" stroke="rgba(255,255,255,0.04)" stroke-width="0.5"/>
  <rect x="276" y="113" width="35" height="3" rx="1.5" fill="rgba(255,255,255,0.06)"/>
  <!-- Input -->
  <rect x="270" y="168" width="100" height="14" rx="7" fill="rgba(255,255,255,0.02)" stroke="rgba(255,255,255,0.05)" stroke-width="0.5"/>
  <text x="302" y="204" text-anchor="middle" fill="rgba(255,255,255,0.12)" font-size="7" font-family="Inter,sans-serif" font-weight="500">Vault by Enigma</text>

  <!-- ═══ Project 3 (middle-right) — Local Happenings App ═══ -->
  <rect x="410" y="60" width="165" height="200" rx="10" fill="rgba(255,255,255,0.025)" stroke="rgba(255,255,255,0.08)" stroke-width="1"/>
  <!-- Phone frame -->
  <rect x="442" y="72" width="100" height="175" rx="14" fill="rgba(255,255,255,0.02)" stroke="rgba(255,255,255,0.08)" stroke-width="1"/>
  <rect x="467" y="78" width="50" height="4" rx="2" fill="rgba(255,255,255,0.06)"/>
  <rect x="450" y="90" width="84" height="140" rx="3" fill="rgba(255,255,255,0.01)"/>
  <!-- Event cards -->
  <rect x="456" y="98" width="72" height="14" rx="3" fill="rgba(255,159,65,0.06)"/>
  <rect x="462" y="103" width="36" height="3" rx="1.5" fill="rgba(255,159,65,0.18)"/>
  <rect x="456" y="120" width="72" height="36" rx="4" fill="rgba(255,255,255,0.03)" stroke="rgba(255,255,255,0.05)" stroke-width="0.5"/>
  <rect x="456" y="120" width="72" height="18" rx="4" fill="rgba(255,255,255,0.02)"/>
  <rect x="462" y="143" width="50" height="3" rx="1.5" fill="rgba(255,255,255,0.08)"/>
  <rect x="462" y="150" width="35" height="3" rx="1.5" fill="rgba(255,255,255,0.05)"/>
  <rect x="456" y="164" width="72" height="36" rx="4" fill="rgba(255,255,255,0.03)" stroke="rgba(255,255,255,0.05)" stroke-width="0.5"/>
  <rect x="456" y="164" width="72" height="18" rx="4" fill="rgba(255,255,255,0.02)"/>
  <rect x="462" y="187" width="45" height="3" rx="1.5" fill="rgba(255,255,255,0.08)"/>
  <rect x="462" y="194" width="55" height="3" rx="1.5" fill="rgba(255,255,255,0.05)"/>
  <rect x="472" y="234" width="40" height="3" rx="1.5" fill="rgba(255,255,255,0.08)"/>
  <text x="492" y="252" text-anchor="middle" fill="rgba(255,255,255,0.12)" font-size="7" font-family="Inter,sans-serif" font-weight="500">Local Happenings</text>

  <!-- ═══ Project 4 (bottom-left) — Web Dashboard ═══ -->
  <rect x="40" y="252" width="195" height="160" rx="10" fill="rgba(255,255,255,0.025)" stroke="rgba(255,255,255,0.08)" stroke-width="1"/>
  <rect x="52" y="264" width="171" height="130" rx="6" fill="rgba(255,255,255,0.015)"/>
  <rect x="52" y="264" width="171" height="14" rx="6" fill="rgba(255,255,255,0.03)"/>
  <circle cx="62" cy="271" r="2.5" fill="#ff5f56"/>
  <circle cx="71" cy="271" r="2.5" fill="#ffbd2e"/>
  <circle cx="80" cy="271" r="2.5" fill="#27c93f"/>
  <!-- Mini dashboard -->
  <rect x="58" y="284" width="50" height="28" rx="4" fill="rgba(255,255,255,0.02)" stroke="rgba(255,255,255,0.04)" stroke-width="0.5"/>
  <rect x="64" y="290" width="24" height="3" rx="1.5" fill="rgba(255,255,255,0.06)"/>
  <rect x="64" y="298" width="32" height="5" rx="2" fill="rgba(255,159,65,0.12)"/>
  <rect x="114" y="284" width="50" height="28" rx="4" fill="rgba(255,255,255,0.02)" stroke="rgba(255,255,255,0.04)" stroke-width="0.5"/>
  <rect x="120" y="290" width="28" height="3" rx="1.5" fill="rgba(255,255,255,0.06)"/>
  <rect x="120" y="298" width="30" height="5" rx="2" fill="rgba(255,159,65,0.12)"/>
  <rect x="170" y="284" width="46" height="28" rx="4" fill="rgba(255,255,255,0.02)" stroke="rgba(255,255,255,0.04)" stroke-width="0.5"/>
  <rect x="176" y="290" width="22" height="3" rx="1.5" fill="rgba(255,255,255,0.06)"/>
  <rect x="176" y="298" width="28" height="5" rx="2" fill="rgba(255,159,65,0.12)"/>
  <!-- Chart -->
  <rect x="58" y="320" width="158" height="60" rx="4" fill="rgba(255,255,255,0.01)" stroke="rgba(255,255,255,0.03)" stroke-width="0.5"/>
  <polyline points="66,368 86,355 106,360 126,340 146,348 166,330 186,338 206,322" fill="none" stroke="rgba(255,159,65,0.2)" stroke-width="1.2" stroke-linecap="round"/>
  <text x="137" y="405" text-anchor="middle" fill="rgba(255,255,255,0.12)" font-size="7" font-family="Inter,sans-serif" font-weight="500">Client Dashboard</text>

  <!-- ═══ Project 5 (bottom-center) — AI Chatbot ═══ -->
  <rect x="255" y="240" width="155" height="175" rx="10" fill="rgba(255,255,255,0.025)" stroke="rgba(255,159,65,0.1)" stroke-width="1"/>
  <!-- Chat widget -->
  <rect x="275" y="255" width="115" height="140" rx="8" fill="rgba(255,255,255,0.015)" stroke="rgba(255,255,255,0.05)" stroke-width="0.5"/>
  <rect x="283" y="263" width="60" height="5" rx="2.5" fill="rgba(255,159,65,0.12)"/>
  <rect x="283" y="275" width="40" height="3" rx="1.5" fill="rgba(255,255,255,0.05)"/>
  <!-- Bot messages -->
  <rect x="283" y="290" width="70" height="20" rx="5" fill="rgba(255,159,65,0.04)" stroke="rgba(255,159,65,0.08)" stroke-width="0.5"/>
  <rect x="289" y="297" width="50" height="3" rx="1.5" fill="rgba(255,159,65,0.12)"/>
  <!-- User message -->
  <rect x="323" y="318" width="55" height="14" rx="5" fill="rgba(255,255,255,0.03)" stroke="rgba(255,255,255,0.05)" stroke-width="0.5"/>
  <rect x="329" y="323" width="35" height="3" rx="1.5" fill="rgba(255,255,255,0.08)"/>
  <!-- Bot reply -->
  <rect x="283" y="340" width="80" height="25" rx="5" fill="rgba(255,159,65,0.04)" stroke="rgba(255,159,65,0.08)" stroke-width="0.5"/>
  <rect x="289" y="347" width="60" height="3" rx="1.5" fill="rgba(255,159,65,0.12)"/>
  <rect x="289" y="354" width="40" height="3" rx="1.5" fill="rgba(255,159,65,0.08)"/>
  <!-- Input -->
  <rect x="283" y="373" width="99" height="12" rx="6" fill="rgba(255,255,255,0.02)" stroke="rgba(255,255,255,0.05)" stroke-width="0.5"/>
  <text x="332" y="406" text-anchor="middle" fill="rgba(255,255,255,0.12)" font-size="7" font-family="Inter,sans-serif" font-weight="500">AI Chat Assistant</text>

  <!-- ═══ Project 6 (bottom-right) — Future Project ═══ -->
  <rect x="425" y="285" width="150" height="140" rx="10" fill="rgba(255,255,255,0.015)" stroke="rgba(255,255,255,0.05)" stroke-width="1" stroke-dasharray="4,4"/>
  <text x="500" y="355" text-anchor="middle" fill="rgba(255,255,255,0.08)" font-size="24" font-family="Inter,sans-serif" font-weight="300">+</text>
  <text x="500" y="375" text-anchor="middle" fill="rgba(255,255,255,0.08)" font-size="8" font-family="Inter,sans-serif" font-weight="500">Your Project</text>

  <!-- Accent bar -->
  <rect x="215" y="452" width="170" height="2" rx="1" fill="url(#accent)" opacity="0.2"/>
</svg>
