<svg xmlns="http://www.w3.org/2000/svg" width="1440" height="900" viewBox="0 0 1440 900">
  <defs>
    <linearGradient id="bg" x1="0" y1="0" x2="1" y2="1">
      <stop offset="0%" stop-color="#0e0e1a"/>
      <stop offset="100%" stop-color="#171728"/>
    </linearGradient>
    <linearGradient id="accent" x1="0" y1="0" x2="1" y2="0">
      <stop offset="0%" stop-color="#FF9F41"/>
      <stop offset="100%" stop-color="#FF7733"/>
    </linearGradient>
  </defs>
  <rect width="1440" height="900" fill="url(#bg)"/>
  <!-- Sidebar -->
  <rect x="0" y="0" width="260" height="900" fill="rgba(255,255,255,0.02)"/>
  <line x1="260" y1="0" x2="260" y2="900" stroke="rgba(255,255,255,0.06)" stroke-width="1"/>
  <rect x="20" y="20" width="28" height="28" rx="6" fill="rgba(255,159,65,0.15)"/>
  <text x="34" y="40" text-anchor="middle" fill="rgba(255,159,65,0.5)" font-size="16" font-family="Inter, sans-serif" font-weight="800">V</text>
  <rect x="58" y="28" width="80" height="8" rx="4" fill="rgba(255,255,255,0.1)"/>
  <rect x="20" y="80" width="220" height="32" rx="6" fill="rgba(255,159,65,0.06)"/>
  <rect x="36" y="92" width="100" height="6" rx="3" fill="rgba(255,159,65,0.2)"/>
  <rect x="20" y="124" width="220" height="32" rx="6" fill="rgba(255,255,255,0.02)"/>
  <rect x="36" y="136" width="120" height="6" rx="3" fill="rgba(255,255,255,0.06)"/>
  <rect x="20" y="168" width="220" height="32" rx="6" fill="rgba(255,255,255,0.02)"/>
  <rect x="36" y="180" width="90" height="6" rx="3" fill="rgba(255,255,255,0.06)"/>
  <!-- Main area -->
  <rect x="280" y="20" width="200" height="10" rx="5" fill="rgba(255,255,255,0.08)"/>
  <rect x="300" y="100" width="500" height="60" rx="10" fill="rgba(255,255,255,0.03)" stroke="rgba(255,255,255,0.05)" stroke-width="0.5"/>
  <rect x="320" y="118" width="300" height="6" rx="3" fill="rgba(255,255,255,0.07)"/>
  <rect x="320" y="132" width="200" height="6" rx="3" fill="rgba(255,255,255,0.05)"/>
  <rect x="700" y="200" width="600" height="80" rx="10" fill="rgba(255,159,65,0.04)" stroke="rgba(255,159,65,0.08)" stroke-width="0.5"/>
  <rect x="720" y="218" width="400" height="6" rx="3" fill="rgba(255,159,65,0.12)"/>
  <rect x="720" y="232" width="350" height="6" rx="3" fill="rgba(255,159,65,0.08)"/>
  <rect x="720" y="246" width="250" height="6" rx="3" fill="rgba(255,159,65,0.06)"/>
  <rect x="300" y="320" width="450" height="50" rx="10" fill="rgba(255,255,255,0.03)" stroke="rgba(255,255,255,0.05)" stroke-width="0.5"/>
  <rect x="320" y="338" width="280" height="6" rx="3" fill="rgba(255,255,255,0.07)"/>
  <rect x="700" y="410" width="620" height="120" rx="10" fill="rgba(255,159,65,0.04)" stroke="rgba(255,159,65,0.08)" stroke-width="0.5"/>
  <rect x="720" y="428" width="420" height="6" rx="3" fill="rgba(255,159,65,0.12)"/>
  <rect x="720" y="442" width="380" height="6" rx="3" fill="rgba(255,159,65,0.08)"/>
  <rect x="720" y="456" width="340" height="6" rx="3" fill="rgba(255,159,65,0.06)"/>
  <rect x="720" y="470" width="300" height="6" rx="3" fill="rgba(255,159,65,0.05)"/>
  <!-- Input bar -->
  <rect x="280" y="820" width="1140" height="50" rx="25" fill="rgba(255,255,255,0.03)" stroke="rgba(255,255,255,0.08)" stroke-width="1"/>
  <rect x="310" y="840" width="200" height="8" rx="4" fill="rgba(255,255,255,0.06)"/>
  <!-- Model badges -->
  <rect x="280" y="770" width="70" height="26" rx="13" fill="rgba(255,159,65,0.08)" stroke="rgba(255,159,65,0.15)" stroke-width="0.5"/>
  <text x="315" y="787" text-anchor="middle" fill="rgba(255,159,65,0.45)" font-size="9" font-family="Inter, sans-serif" font-weight="600">GPT-4o</text>
  <rect x="360" y="770" width="62" height="26" rx="13" fill="rgba(255,255,255,0.03)" stroke="rgba(255,255,255,0.08)" stroke-width="0.5"/>
  <text x="391" y="787" text-anchor="middle" fill="rgba(255,255,255,0.25)" font-size="9" font-family="Inter, sans-serif" font-weight="600">Claude</text>
  <rect x="432" y="770" width="68" height="26" rx="13" fill="rgba(255,255,255,0.03)" stroke="rgba(255,255,255,0.08)" stroke-width="0.5"/>
  <text x="466" y="787" text-anchor="middle" fill="rgba(255,255,255,0.25)" font-size="9" font-family="Inter, sans-serif" font-weight="600">Gemini</text>
  <!-- Center label -->
  <text x="720" y="660" text-anchor="middle" fill="rgba(255,255,255,0.15)" font-size="16" font-family="Inter, -apple-system, sans-serif" font-weight="500">Replace with real Vault screenshot</text>
  <rect x="630" y="672" width="180" height="2" rx="1" fill="url(#accent)" opacity="0.2"/>
</svg>
